<svg viewBox="0 0 216 150" xmlns="http://www.w3.org/2000/svg">
  <defs>
    <linearGradient id="bodyS1_050" x1="0" y1="0" x2="0" y2="1">
      <stop offset="0%" stop-color="#ffe08a"/><stop offset="55%" stop-color="#ff8a2a"/>
      <stop offset="100%" stop-color="#e01f1f"/>
    </linearGradient>
    <linearGradient id="body2S1_050" x1="0" y1="0" x2="1" y2="1">
      <stop offset="0%" stop-color="#ff8a2a"/><stop offset="100%" stop-color="#4a0f04"/>
    </linearGradient>
    <linearGradient id="bellyS1_050" x1="0" y1="0" x2="0" y2="1">
      <stop offset="0%" stop-color="#ffffff" stop-opacity=".92"/><stop offset="100%" stop-color="#ffe08a"/>
    </linearGradient>
    <linearGradient id="voidS1_050" x1="0" y1="0" x2="0.3" y2="1">
      <stop offset="0%" stop-color="#4c2a86"/><stop offset="55%" stop-color="#2a1352"/>
      <stop offset="100%" stop-color="#100628"/>
    </linearGradient>
    <linearGradient id="metalS1_050" x1="0" y1="0" x2="0" y2="1">
      <stop offset="0%" stop-color="#c9d2e6"/><stop offset="45%" stop-color="#7d879f"/>
      <stop offset="100%" stop-color="#333a4d"/>
    </linearGradient>
    <linearGradient id="woodS1_050" x1="0" y1="0" x2="1" y2="1">
      <stop offset="0%" stop-color="#9a6d3a"/><stop offset="100%" stop-color="#4a3016"/>
    </linearGradient>
    <radialGradient id="stageS1_050" cx="50%" cy="62%" r="55%">
      <stop offset="0%" stop-color="#ffd15c" stop-opacity=".55"/><stop offset="70%" stop-color="#ffd15c" stop-opacity="0"/>
    </radialGradient>
    <radialGradient id="orbS1_050" cx="42%" cy="38%" r="65%">
      <stop offset="0%" stop-color="#ffffff" stop-opacity=".95"/>
      <stop offset="45%" stop-color="#ffe08a"/><stop offset="100%" stop-color="#e01f1f"/>
    </radialGradient>
    <radialGradient id="haloS1_050" cx="50%" cy="50%" r="50%">
      <stop offset="60%" stop-color="#ffd15c" stop-opacity="0"/><stop offset="100%" stop-color="#ffd15c" stop-opacity=".5"/>
    </radialGradient>
    <linearGradient id="rimS1_050" x1="0" y1="0" x2="1" y2="1">
      <stop offset="0%" stop-color="#ff9bf5"/><stop offset="100%" stop-color="#ffd15c" stop-opacity=".2"/>
    </linearGradient>
  </defs>
  <defs>
    <linearGradient id="skyS1_050" x1="0" y1="0" x2="0" y2="1">
      <stop offset="0%" stop-color="#3a0d05"/><stop offset="55%" stop-color="#7a1c06"/><stop offset="100%" stop-color="#20060a"/>
    </linearGradient>
    <radialGradient id="lavaS1_050" cx="50%" cy="100%" r="80%">
      <stop offset="0%" stop-color="#ffd15c"/><stop offset="35%" stop-color="#ff6a1a"/><stop offset="100%" stop-color="#7a1c06" stop-opacity="0"/>
    </radialGradient>
  </defs>
  <rect x="0" y="0" width="216" height="150" fill="url(#skyS1_050)"/>
  <path d="M0,150 L0,96 L34,110 L70,88 L104,104 L150,86 L186,106 L216,92 L216,150 Z" fill="#2a0a06"/>
  <path d="M56,150 L56,74 L74,56 L92,150 Z M150,150 L142,68 L162,52 L182,150 Z" fill="#1c0705" opacity=".8"/>
  <g stroke="#ff7a1a" stroke-width="1" opacity=".5" fill="none">
    <path d="M28,150 L34,120 L28,104 L38,84"/><path d="M120,150 L116,118 L126,100"/><path d="M176,150 L172,120 L182,102"/>
  </g>
  <rect x="0" y="118" width="216" height="32" fill="url(#lavaS1_050)"/>
  <path d="M0,150 L0,138 Q54,128 108,138 T216,136 L216,150 Z" fill="#ffb24d" opacity=".9"/>
  <path d="M0,150 L0,144 Q54,136 108,144 T216,142 L216,150 Z" fill="#fff0b0" opacity=".7"/>
  <circle cx="30" cy="52" r="1.8" fill="#ffcf6a" opacity="0.9"/><circle cx="70" cy="34" r="1.3" fill="#ffcf6a" opacity="0.8"/><circle cx="120" cy="60" r="1.6" fill="#ffcf6a" opacity="0.85"/><circle cx="160" cy="30" r="1.2" fill="#ffcf6a" opacity="0.7"/><circle cx="188" cy="66" r="1.7" fill="#ffcf6a" opacity="0.8"/><circle cx="50" cy="84" r="1.2" fill="#ffcf6a" opacity="0.7"/><circle cx="96" cy="26" r="1.1" fill="#ffcf6a" opacity="0.7"/><circle cx="142" cy="44" r="1.0" fill="#ffcf6a" opacity="0.6"/>
  <ellipse cx="108" cy="118" rx="86" ry="30" fill="url(#stageS1_050)"/><g><circle cx="108" cy="70" r="50" fill="none" stroke="#ffd15c" stroke-width="2.5" opacity=".4"/><line x1="148.0" y1="70.0" x2="170.0" y2="70.0" stroke="#ffd15c" stroke-width="1.4" opacity=".22"/><line x1="145.0" y1="85.3" x2="165.3" y2="93.7" stroke="#ffd15c" stroke-width="1.4" opacity=".22"/><line x1="136.3" y1="98.3" x2="151.8" y2="113.8" stroke="#ffd15c" stroke-width="1.4" opacity=".22"/><line x1="123.3" y1="107.0" x2="131.7" y2="127.3" stroke="#ffd15c" stroke-width="1.4" opacity=".22"/><line x1="108.0" y1="110.0" x2="108.0" y2="132.0" stroke="#ffd15c" stroke-width="1.4" opacity=".22"/><line x1="92.7" y1="107.0" x2="84.3" y2="127.3" stroke="#ffd15c" stroke-width="1.4" opacity=".22"/><line x1="79.7" y1="98.3" x2="64.2" y2="113.8" stroke="#ffd15c" stroke-width="1.4" opacity=".22"/><line x1="71.0" y1="85.3" x2="50.7" y2="93.7" stroke="#ffd15c" stroke-width="1.4" opacity=".22"/><line x1="68.0" y1="70.0" x2="46.0" y2="70.0" stroke="#ffd15c" stroke-width="1.4" opacity=".22"/><line x1="71.0" y1="54.7" x2="50.7" y2="46.3" stroke="#ffd15c" stroke-width="1.4" opacity=".22"/><line x1="79.7" y1="41.7" x2="64.2" y2="26.2" stroke="#ffd15c" stroke-width="1.4" opacity=".22"/><line x1="92.7" y1="33.0" x2="84.3" y2="12.7" stroke="#ffd15c" stroke-width="1.4" opacity=".22"/><line x1="108.0" y1="30.0" x2="108.0" y2="8.0" stroke="#ffd15c" stroke-width="1.4" opacity=".22"/><line x1="123.3" y1="33.0" x2="131.7" y2="12.7" stroke="#ffd15c" stroke-width="1.4" opacity=".22"/><line x1="136.3" y1="41.7" x2="151.8" y2="26.2" stroke="#ffd15c" stroke-width="1.4" opacity=".22"/><line x1="145.0" y1="54.7" x2="165.3" y2="46.3" stroke="#ffd15c" stroke-width="1.4" opacity=".22"/><g stroke="#4a0f04" stroke-width="2.2" stroke-linejoin="round"><path d="M104,72 C68,40 30,40 8,52 C32,52 44,58 38,66 C20,60 12,70 16,80 C38,70 64,80 104,92 Z" fill="url(#bodyS1_050)"/><path d="M112,72 C148,40 186,40 208,52 C184,52 172,58 178,66 C196,60 204,70 200,80 C178,70 152,80 112,92 Z" fill="url(#bodyS1_050)"/><path d="M108,116 C96,132 92,142 84,148 C104,140 108,132 108,124 C108,132 112,140 132,148 C124,142 120,132 108,116 Z" fill="#ff8a2a"/><path d="M108,66 C122,66 128,84 122,104 C118,118 98,118 94,104 C88,84 94,66 108,66 Z" fill="url(#bodyS1_050)"/><ellipse cx="108" cy="96" rx="9" ry="14" fill="url(#bellyS1_050)" stroke="none"/><circle cx="108" cy="54" r="16" fill="url(#bodyS1_050)"/><path d="M100,42 C96,30 100,22 104,16 C108,26 108,32 106,40 Z M108,40 C108,28 112,20 118,14 C120,26 118,34 114,42 Z" fill="#ffd15c" stroke="none"/><path d="M94,54 l-12,-3 l12,-3 Z" fill="#ffd15c"/><ellipse cx="102.0" cy="52.0" rx="3.6" ry="4.1" fill="#ffd15c"/><circle cx="101.4" cy="52.4" r="2.2" fill="#1a1020"/><circle cx="100.5" cy="50.7" r="0.9" fill="#fff"/><ellipse cx="114.0" cy="52.0" rx="3.6" ry="4.1" fill="#ffd15c"/><circle cx="113.4" cy="52.4" r="2.2" fill="#1a1020"/><circle cx="112.5" cy="50.7" r="0.9" fill="#fff"/><circle cx="108" cy="86" r="5" fill="#ffd15c" stroke="#fff" stroke-width="1"/></g></g></svg>