<svg viewBox="0 0 216 150" xmlns="http://www.w3.org/2000/svg">
  <defs>
    <linearGradient id="bodyS1_045" x1="0" y1="0" x2="0" y2="1">
      <stop offset="0%" stop-color="#ffe08a"/><stop offset="55%" stop-color="#ff8a2a"/>
      <stop offset="100%" stop-color="#e01f1f"/>
    </linearGradient>
    <linearGradient id="body2S1_045" x1="0" y1="0" x2="1" y2="1">
      <stop offset="0%" stop-color="#ff8a2a"/><stop offset="100%" stop-color="#4a0f04"/>
    </linearGradient>
    <linearGradient id="bellyS1_045" x1="0" y1="0" x2="0" y2="1">
      <stop offset="0%" stop-color="#ffffff" stop-opacity=".92"/><stop offset="100%" stop-color="#ffe08a"/>
    </linearGradient>
    <radialGradient id="stageS1_045" cx="50%" cy="62%" r="55%">
      <stop offset="0%" stop-color="#ffd15c" stop-opacity=".55"/><stop offset="70%" stop-color="#ffd15c" stop-opacity="0"/>
    </radialGradient>
    <radialGradient id="orbS1_045" cx="42%" cy="38%" r="65%">
      <stop offset="0%" stop-color="#ffffff" stop-opacity=".95"/>
      <stop offset="45%" stop-color="#ffe08a"/><stop offset="100%" stop-color="#e01f1f"/>
    </radialGradient>
  </defs>
  <defs>
    <linearGradient id="skyS1_045" x1="0" y1="0" x2="0" y2="1">
      <stop offset="0%" stop-color="#3a0d05"/><stop offset="55%" stop-color="#7a1c06"/><stop offset="100%" stop-color="#20060a"/>
    </linearGradient>
    <radialGradient id="lavaS1_045" cx="50%" cy="100%" r="80%">
      <stop offset="0%" stop-color="#ffd15c"/><stop offset="35%" stop-color="#ff6a1a"/><stop offset="100%" stop-color="#7a1c06" stop-opacity="0"/>
    </radialGradient>
  </defs>
  <rect x="0" y="0" width="216" height="150" fill="url(#skyS1_045)"/>
  <path d="M0,150 L0,96 L34,110 L70,88 L104,104 L150,86 L186,106 L216,92 L216,150 Z" fill="#2a0a06"/>
  <path d="M56,150 L56,74 L74,56 L92,150 Z M150,150 L142,68 L162,52 L182,150 Z" fill="#1c0705" opacity=".8"/>
  <g stroke="#ff7a1a" stroke-width="1" opacity=".5" fill="none">
    <path d="M28,150 L34,120 L28,104 L38,84"/><path d="M120,150 L116,118 L126,100"/><path d="M176,150 L172,120 L182,102"/>
  </g>
  <rect x="0" y="118" width="216" height="32" fill="url(#lavaS1_045)"/>
  <path d="M0,150 L0,138 Q54,128 108,138 T216,136 L216,150 Z" fill="#ffb24d" opacity=".9"/>
  <path d="M0,150 L0,144 Q54,136 108,144 T216,142 L216,150 Z" fill="#fff0b0" opacity=".7"/>
  <circle cx="30" cy="52" r="1.8" fill="#ffcf6a" opacity="0.9"/><circle cx="70" cy="34" r="1.3" fill="#ffcf6a" opacity="0.8"/><circle cx="120" cy="60" r="1.6" fill="#ffcf6a" opacity="0.85"/><circle cx="160" cy="30" r="1.2" fill="#ffcf6a" opacity="0.7"/><circle cx="188" cy="66" r="1.7" fill="#ffcf6a" opacity="0.8"/><circle cx="50" cy="84" r="1.2" fill="#ffcf6a" opacity="0.7"/><circle cx="96" cy="26" r="1.1" fill="#ffcf6a" opacity="0.7"/>
  <ellipse cx="108" cy="118" rx="86" ry="30" fill="url(#stageS1_045)"/><ellipse cx="108" cy="138.7" rx="42.8" ry="7.3" fill="#000" opacity=".22"/><g stroke="#4a0f04" stroke-width="2.3" stroke-linejoin="round" stroke-linecap="round"><rect x="89.1" y="93.6" width="12.6" height="40.6" rx="6.3" fill="url(#body2S1_045)"/><rect x="116.0" y="93.6" width="12.6" height="40.6" rx="6.3" fill="url(#body2S1_045)"/><path d="M143.7,85.2 q29.4,-2.8000000000000003 29.4,-30.800000000000004" fill="none" stroke="url(#body2S1_045)" stroke-width="8.4"/><g transform="rotate(20 173.10000000000002 54.4)" stroke="#4a0f04" stroke-width="1.1" stroke-linejoin="round"><path d="M173.10000000000002,68.4 C161.90000000000003,57.199999999999996 166.10000000000002,48.8 173.10000000000002,40.4 C180.10000000000002,48.8 184.3,57.199999999999996 173.10000000000002,68.4 Z" fill="#ffd15c"/><path d="M173.10000000000002,61.4 C167.50000000000003,55.8 169.60000000000002,50.9 173.10000000000002,46.0 C176.60000000000002,50.9 178.70000000000002,55.8 173.10000000000002,61.4 Z" fill="#ff8a2a" stroke="none"/></g><ellipse cx="108" cy="88" rx="42" ry="28" fill="url(#bodyS1_045)"/><ellipse cx="105.9" cy="97.52" rx="23.1" ry="14.56" fill="url(#bellyS1_045)" stroke="none"/><circle cx="116.4" cy="85.2" r="2.2" fill="#ffd15c" opacity=".7"/><circle cx="129.0" cy="90.8" r="2.0" fill="#ffd15c" opacity=".7"/><g fill="url(#body2S1_045)" stroke="#4a0f04" stroke-width="1.6" stroke-linejoin="round"><path d="M82.0,67.0 L87.0,55.0 L92.0,67.0 Z"/><path d="M93.6,61.400000000000006 L99.6,46.400000000000006 L105.6,61.400000000000006 Z"/><path d="M107.04,62.8 L113.04,48.8 L119.04,62.8 Z"/><path d="M120.64,68.4 L125.64,57.400000000000006 L130.64,68.4 Z"/></g><rect x="79.9" y="95.0" width="12.6" height="42.0" rx="6.3" fill="url(#bodyS1_045)"/><ellipse cx="86.16" cy="137.4" rx="7.8" ry="5.0" fill="#e01f1f"/><rect x="125.2" y="95.0" width="12.6" height="42.0" rx="6.3" fill="url(#bodyS1_045)"/><ellipse cx="131.52" cy="137.4" rx="7.8" ry="5.0" fill="#e01f1f"/><circle cx="80.3" cy="73.4" r="22.0" fill="url(#bodyS1_045)"/><path d="M72.9,66.8 L78.1,52.5 L83.3,66.8 Z" fill="url(#bodyS1_045)" transform="rotate(-8 78.08 73.44)"/><path d="M87.2,66.8 L92.4,52.5 L97.6,66.8 Z" fill="url(#bodyS1_045)" transform="rotate(10 92.38 73.44)"/><ellipse cx="64.4" cy="80.9" rx="9.2" ry="7.0" fill="url(#bodyS1_045)"/><circle cx="57.8" cy="78.7" r="2.9" fill="#4a0f04"/><ellipse cx="72.8" cy="72.56" rx="5.279999999999999" ry="6.019199999999999" fill="#ffffff"/><circle cx="68.312" cy="73.1936" r="3.1679999999999997" fill="#1a1020"/><circle cx="67.0448" cy="70.6592" r="1.2671999999999999" fill="#fff"/><path d="M65.93599999999999,64.64 L78.608,69.92" stroke="#1a1020" stroke-width="2.6399999999999997" stroke-linecap="round"/><ellipse cx="83.8" cy="73.0" rx="4.8576" ry="5.5376639999999995" fill="#ffffff"/><circle cx="79.312" cy="73.582912" r="2.91456" fill="#1a1020"/><circle cx="78.146176" cy="71.251264" r="1.165824" fill="#fff"/><path d="M77.48512,65.7136 L89.14336,70.5712" stroke="#1a1020" stroke-width="2.4288" stroke-linecap="round"/><path d="M58.3,83.3 q11.0,11.0 20.9,0.05" fill="#4a0f04" stroke="none"/><path d="M62.7,84.4 l2,6 l3,-6 Z" fill="#fff"/></g><path d="M60.3,79.4 q-6,14 6,18 q14,3 18,-6 q-10,2 -16,-4 q-4,-4 -8,-8 Z" fill="#4a0f04" stroke="#4a0f04" stroke-width="1.6"/><g fill="#fff"><path d="M64.3,82.4 l2,6 l3,-6 Z"/><path d="M72.3,82.4 l2,6 l3,-6 Z"/><path d="M80.3,82.4 l2,6 l3,-6 Z"/></g></svg>