<svg viewBox="0 0 216 150" xmlns="http://www.w3.org/2000/svg">
  <defs>
    <linearGradient id="bodyS1_034" x1="0" y1="0" x2="0" y2="1">
      <stop offset="0%" stop-color="#f4cf94"/><stop offset="55%" stop-color="#c98a3c"/>
      <stop offset="100%" stop-color="#7a4a24"/>
    </linearGradient>
    <linearGradient id="body2S1_034" x1="0" y1="0" x2="1" y2="1">
      <stop offset="0%" stop-color="#c98a3c"/><stop offset="100%" stop-color="#2c1a0c"/>
    </linearGradient>
    <linearGradient id="bellyS1_034" x1="0" y1="0" x2="0" y2="1">
      <stop offset="0%" stop-color="#ffffff" stop-opacity=".92"/><stop offset="100%" stop-color="#f4cf94"/>
    </linearGradient>
    <linearGradient id="voidS1_034" x1="0" y1="0" x2="0.3" y2="1">
      <stop offset="0%" stop-color="#4c2a86"/><stop offset="55%" stop-color="#2a1352"/>
      <stop offset="100%" stop-color="#100628"/>
    </linearGradient>
    <linearGradient id="metalS1_034" x1="0" y1="0" x2="0" y2="1">
      <stop offset="0%" stop-color="#c9d2e6"/><stop offset="45%" stop-color="#7d879f"/>
      <stop offset="100%" stop-color="#333a4d"/>
    </linearGradient>
    <linearGradient id="woodS1_034" x1="0" y1="0" x2="1" y2="1">
      <stop offset="0%" stop-color="#9a6d3a"/><stop offset="100%" stop-color="#4a3016"/>
    </linearGradient>
    <radialGradient id="stageS1_034" cx="50%" cy="62%" r="55%">
      <stop offset="0%" stop-color="#ffcf8a" stop-opacity=".55"/><stop offset="70%" stop-color="#ffcf8a" stop-opacity="0"/>
    </radialGradient>
    <radialGradient id="orbS1_034" cx="42%" cy="38%" r="65%">
      <stop offset="0%" stop-color="#ffffff" stop-opacity=".95"/>
      <stop offset="45%" stop-color="#f4cf94"/><stop offset="100%" stop-color="#7a4a24"/>
    </radialGradient>
    <radialGradient id="haloS1_034" cx="50%" cy="50%" r="50%">
      <stop offset="60%" stop-color="#ffcf8a" stop-opacity="0"/><stop offset="100%" stop-color="#ffcf8a" stop-opacity=".5"/>
    </radialGradient>
    <linearGradient id="rimS1_034" x1="0" y1="0" x2="1" y2="1">
      <stop offset="0%" stop-color="#ff9bf5"/><stop offset="100%" stop-color="#ffcf8a" stop-opacity=".2"/>
    </linearGradient>
  </defs>
  <defs>
    <linearGradient id="skyS1_034" x1="0" y1="0" x2="0" y2="1">
      <stop offset="0%" stop-color="#3a0d05"/><stop offset="55%" stop-color="#7a1c06"/><stop offset="100%" stop-color="#20060a"/>
    </linearGradient>
    <radialGradient id="lavaS1_034" cx="50%" cy="100%" r="80%">
      <stop offset="0%" stop-color="#ffd15c"/><stop offset="35%" stop-color="#ff6a1a"/><stop offset="100%" stop-color="#7a1c06" stop-opacity="0"/>
    </radialGradient>
  </defs>
  <rect x="0" y="0" width="216" height="150" fill="url(#skyS1_034)"/>
  <path d="M0,150 L0,96 L34,110 L70,88 L104,104 L150,86 L186,106 L216,92 L216,150 Z" fill="#2a0a06"/>
  <path d="M56,150 L56,74 L74,56 L92,150 Z M150,150 L142,68 L162,52 L182,150 Z" fill="#1c0705" opacity=".8"/>
  <g stroke="#ff7a1a" stroke-width="1" opacity=".5" fill="none">
    <path d="M28,150 L34,120 L28,104 L38,84"/><path d="M120,150 L116,118 L126,100"/><path d="M176,150 L172,120 L182,102"/>
  </g>
  <rect x="0" y="118" width="216" height="32" fill="url(#lavaS1_034)"/>
  <path d="M0,150 L0,138 Q54,128 108,138 T216,136 L216,150 Z" fill="#ffb24d" opacity=".9"/>
  <path d="M0,150 L0,144 Q54,136 108,144 T216,142 L216,150 Z" fill="#fff0b0" opacity=".7"/>
  <circle cx="30" cy="52" r="1.8" fill="#ffcf6a" opacity="0.9"/><circle cx="70" cy="34" r="1.3" fill="#ffcf6a" opacity="0.8"/><circle cx="120" cy="60" r="1.6" fill="#ffcf6a" opacity="0.85"/><circle cx="160" cy="30" r="1.2" fill="#ffcf6a" opacity="0.7"/><circle cx="188" cy="66" r="1.7" fill="#ffcf6a" opacity="0.8"/><circle cx="50" cy="84" r="1.2" fill="#ffcf6a" opacity="0.7"/><circle cx="96" cy="26" r="1.1" fill="#ffcf6a" opacity="0.7"/><circle cx="142" cy="44" r="1.0" fill="#ffcf6a" opacity="0.6"/>
  <ellipse cx="108" cy="118" rx="86" ry="30" fill="url(#stageS1_034)"/><ellipse cx="108.0" cy="111.0" rx="33.3" ry="6.7" fill="#000" opacity=".26"/><ellipse cx="108.0" cy="111.0" rx="24.0" ry="4.3" fill="#ff7a1a" opacity=".4"/><path d="M87.7,88.0 q-11.6,4 -13.9,14" fill="none" stroke="#7a4a24" stroke-width="2.4" stroke-linecap="round"/><path d="M87.7,92.0 q-11.6,4 -13.9,14" fill="none" stroke="#7a4a24" stroke-width="2.4" stroke-linecap="round"/><path d="M87.7,96.0 q-11.6,4 -13.9,14" fill="none" stroke="#7a4a24" stroke-width="2.4" stroke-linecap="round"/><path d="M88.9,82.0 L68.6,72.6" stroke="url(#body2S1_034)" stroke-width="5.0" stroke-linecap="round"/><path d="M88.9,82.0 L68.6,72.6" stroke="#ff7a1a" stroke-width="1.1" opacity=".7"/><path d="M66.2,70.7 q-10.0,-6 -2.0,-12 q6.0,2 2.0,8 q8.0,-2 8.0,6 Z" fill="url(#bodyS1_034)" stroke="#2c1a0c" stroke-width="1.6" stroke-linejoin="round"/><path d="M128.3,88.0 q11.6,4 13.9,14" fill="none" stroke="#7a4a24" stroke-width="2.4" stroke-linecap="round"/><path d="M128.3,92.0 q11.6,4 13.9,14" fill="none" stroke="#7a4a24" stroke-width="2.4" stroke-linecap="round"/><path d="M128.3,96.0 q11.6,4 13.9,14" fill="none" stroke="#7a4a24" stroke-width="2.4" stroke-linecap="round"/><path d="M127.1,82.0 L147.4,72.6" stroke="url(#body2S1_034)" stroke-width="5.0" stroke-linecap="round"/><path d="M127.1,82.0 L147.4,72.6" stroke="#ff7a1a" stroke-width="1.1" opacity=".7"/><path d="M149.8,70.7 q10.0,-6 2.0,-12 q-6.0,2 -2.0,8 q-8.0,-2 -8.0,6 Z" fill="url(#bodyS1_034)" stroke="#2c1a0c" stroke-width="1.6" stroke-linejoin="round"/><path d="M137.5,82.1 L131.9,93.7 L113.0,102.4 L92.2,99.8 L79.5,89.3 L79.8,75.5 L93.0,64.4 L113.2,64.1 L132.3,69.4 Z" fill="url(#bodyS1_034)" stroke="#2c1a0c" stroke-width="2.2" stroke-linejoin="round"/><path d="M119.8,84.4 L123.5,88.2 L122.6,90.9 L127.1,95.0" fill="none" stroke="#ff7a1a" stroke-width="1.5" stroke-linecap="round" opacity=".9"/><path d="M115.1,78.5 L118.8,80.6 L121.7,84.9 L124.7,87.1" fill="none" stroke="#ff7a1a" stroke-width="1.5" stroke-linecap="round" opacity=".9"/><path d="M116.5,77.9 L120.0,81.3 L115.9,84.8 L115.8,87.0" fill="none" stroke="#ff7a1a" stroke-width="1.5" stroke-linecap="round" opacity=".9"/><path d="M112.1,75.3 L105.7,80.4 L95.5,80.3 L89.7,75.3 L95.5,70.1 L106.7,71.7 Z" fill="#2b1109" opacity=".45"/><line x1="101.0" y1="72.6" x2="100.5" y2="62.2" stroke="#7a4a24" stroke-width="2.4"/><line x1="115.0" y1="72.6" x2="115.5" y2="62.2" stroke="#7a4a24" stroke-width="2.4"/><ellipse cx="100.5" cy="60.4" rx="3.0" ry="3.4" fill="#ffcf8a"/><circle cx="100.5" cy="60.8" r="1.8" fill="#1a1020"/><circle cx="99.7" cy="59.4" r="0.7" fill="#fff"/><path d="M96.6,55.9 L103.8,58.9" stroke="#1a1020" stroke-width="1.5" stroke-linecap="round"/><path d="M96.9,55.9 l6.6,-0.9" stroke="#2b1109" stroke-width="1.5" stroke-linecap="round"/><ellipse cx="115.5" cy="60.4" rx="2.8" ry="3.1" fill="#ffcf8a"/><circle cx="115.5" cy="60.8" r="1.7" fill="#1a1020"/><circle cx="114.9" cy="59.4" r="0.7" fill="#fff"/><path d="M112.0,56.3 L118.6,59.1" stroke="#1a1020" stroke-width="1.4" stroke-linecap="round"/><path d="M112.2,56.3 l6.1,-0.8" stroke="#2b1109" stroke-width="1.4" stroke-linecap="round"/><path d="M101.6,89.3 q6.4,5.6 12.8,0" fill="none" stroke="#2c1a0c" stroke-width="1.6" stroke-linecap="round"/><path d="M104.2,90.9 l0,2.0 M108.0,91.9 l0,2.0 M111.6,91.1 l0,1.8" stroke="#2c1a0c" stroke-width="1.1"/></svg>