<svg viewBox="0 0 216 150" xmlns="http://www.w3.org/2000/svg">
  <defs>
    <linearGradient id="bodyS3_038" x1="0" y1="0" x2="0" y2="1">
      <stop offset="0%" stop-color="#dcffa8"/><stop offset="55%" stop-color="#78dd63"/>
      <stop offset="100%" stop-color="#2f9e44"/>
    </linearGradient>
    <linearGradient id="body2S3_038" x1="0" y1="0" x2="1" y2="1">
      <stop offset="0%" stop-color="#78dd63"/><stop offset="100%" stop-color="#123f1e"/>
    </linearGradient>
    <linearGradient id="bellyS3_038" x1="0" y1="0" x2="0" y2="1">
      <stop offset="0%" stop-color="#ffffff" stop-opacity=".92"/><stop offset="100%" stop-color="#dcffa8"/>
    </linearGradient>
    <radialGradient id="stageS3_038" cx="50%" cy="62%" r="55%">
      <stop offset="0%" stop-color="#eaffb4" stop-opacity=".55"/><stop offset="70%" stop-color="#eaffb4" stop-opacity="0"/>
    </radialGradient>
    <radialGradient id="orbS3_038" cx="42%" cy="38%" r="65%">
      <stop offset="0%" stop-color="#ffffff" stop-opacity=".95"/>
      <stop offset="45%" stop-color="#dcffa8"/><stop offset="100%" stop-color="#2f9e44"/>
    </radialGradient>
  </defs>
  <defs>
    <linearGradient id="skyS3_038" x1="0" y1="0" x2="0" y2="1">
      <stop offset="0%" stop-color="#4fb85e"/><stop offset="50%" stop-color="#2c8a3e"/><stop offset="100%" stop-color="#0c2f16"/>
    </linearGradient>
  </defs>
  <rect x="0" y="0" width="216" height="150" fill="url(#skyS3_038)"/>
  <g fill="#1c5f2b" opacity=".85">
    <rect x="18" y="10" width="20" height="140" rx="10"/><rect x="176" y="4" width="24" height="146" rx="12"/>
  </g>
  <g fill="#134a20" opacity=".7">
    <ellipse cx="30" cy="20" rx="34" ry="20"/><ellipse cx="188" cy="14" rx="40" ry="22"/><ellipse cx="108" cy="6" rx="70" ry="18"/>
  </g>
  <polygon points="40,0 60,0 86,150 54,150" fill="#eaffb0" opacity=".10"/><polygon points="96,0 122,0 148,150 110,150" fill="#eaffb0" opacity=".10"/><polygon points="160,0 178,0 204,150 174,150" fill="#eaffb0" opacity=".10"/>
  <g fill="#2f9e44" opacity=".8">
    <path d="M46,10 q-10,10 -4,22 q10,-4 8,-20 Z"/><path d="M170,8 q10,10 4,22 q-10,-4 -6,-20 Z"/>
  </g>
  <circle cx="34" cy="52" r="1.6" fill="#f6ffcf" opacity="0.7"/><circle cx="72" cy="34" r="1.2" fill="#f6ffcf" opacity="0.6"/><circle cx="150" cy="44" r="1.6" fill="#f6ffcf" opacity="0.65"/><circle cx="186" cy="64" r="1.3" fill="#f6ffcf" opacity="0.6"/><circle cx="110" cy="28" r="1.1" fill="#f6ffcf" opacity="0.6"/><circle cx="60" cy="96" r="1.3" fill="#f6ffcf" opacity="0.6"/>
  <path d="M0,150 L0,128 Q54,140 108,130 T216,132 L216,150 Z" fill="#12451f"/>
  <path d="M12,150 C9,120 11,112 14,106" stroke="#1c5a2a" stroke-width="3" fill="none" stroke-linecap="round"/><path d="M30,150 C27,112 29,104 32,98" stroke="#1c5a2a" stroke-width="3" fill="none" stroke-linecap="round"/><path d="M190,150 C187,116 189,108 192,102" stroke="#1c5a2a" stroke-width="3" fill="none" stroke-linecap="round"/><path d="M206,150 C203,122 205,114 208,108" stroke="#1c5a2a" stroke-width="3" fill="none" stroke-linecap="round"/><path d="M150,150 C147,126 149,118 152,112" stroke="#1c5a2a" stroke-width="3" fill="none" stroke-linecap="round"/>
  <ellipse cx="108" cy="96" rx="92" ry="44" fill="url(#stageS3_038)"/><ellipse cx="108" cy="130.0" rx="28.5" ry="5.5" fill="#000" opacity=".22"/><g stroke="#123f1e" stroke-width="2.3" stroke-linejoin="round" stroke-linecap="round"><rect x="95.4" y="96.2" width="8.4" height="30.4" rx="4.2" fill="url(#body2S3_038)"/><rect x="113.3" y="96.2" width="8.4" height="30.4" rx="4.2" fill="url(#body2S3_038)"/><circle cx="133.2" cy="89.9" r="10.5" fill="url(#bodyS3_038)"/><circle cx="140.2" cy="84.7" r="8.8" fill="url(#bodyS3_038)"/><circle cx="144.9" cy="79.0" r="6.7" fill="url(#bodyS3_038)"/><ellipse cx="108" cy="92" rx="27.968" ry="20.976" fill="url(#bodyS3_038)"/><ellipse cx="106.6016" cy="99.13184" rx="15.3824" ry="10.90752" fill="url(#bellyS3_038)" stroke="none"/><path d="M113.5936,87.7024 Q115.7936,89.9024 113.5936,92.1024 Q111.39359999999999,89.9024 113.5936,87.7024 Z" fill="#123f1e" opacity=".5"/><rect x="89.3" y="97.2" width="8.4" height="31.5" rx="4.2" fill="url(#bodyS3_038)"/><ellipse cx="93.45664" cy="129.0" rx="5.2" ry="3.4" fill="#2f9e44"/><rect x="119.5" y="97.2" width="8.4" height="31.5" rx="4.2" fill="url(#bodyS3_038)"/><ellipse cx="123.66208" cy="129.0" rx="5.2" ry="3.4" fill="#2f9e44"/><circle cx="89.5" cy="81.1" r="14.9" fill="url(#bodyS3_038)"/><path d="M83.9,76.6 L88.1,54.6 L92.3,76.6 Z" fill="url(#bodyS3_038)" transform="rotate(-8 88.05532000000001 81.09248)"/><path d="M93.5,76.6 L97.7,54.6 L101.9,76.6 Z" fill="url(#bodyS3_038)" transform="rotate(10 97.71302 81.09248)"/><ellipse cx="78.8" cy="86.1" rx="6.2" ry="4.8" fill="url(#bodyS3_038)"/><circle cx="74.4" cy="84.7" r="1.9" fill="#123f1e"/><ellipse cx="84.4894" cy="80.49816" rx="3.56592" ry="4.0651488" fill="#ffffff"/><circle cx="82.34984800000001" cy="80.9260704" r="2.139552" fill="#1a1020"/><circle cx="81.4940272" cy="79.2144288" r="0.8558208" fill="#fff"/><ellipse cx="91.9184" cy="80.79531999999999" rx="3.2806464" ry="3.7399368959999997" fill="#ffffff"/><circle cx="89.77884800000001" cy="81.18899756799999" r="1.96838784" fill="#1a1020"/><circle cx="88.99149286400001" cy="79.61428729599999" r="0.7873551360000001" fill="#fff"/><path d="M75.4,88.8 q5.2002999999999995,4.4574 10.400599999999999,0" fill="none" stroke="#123f1e" stroke-width="1.5"/></g></svg>