<svg viewBox="0 0 216 150" xmlns="http://www.w3.org/2000/svg">
  <defs>
    <linearGradient id="bodyS3_006" x1="0" y1="0" x2="0" y2="1">
      <stop offset="0%" stop-color="#dcffa8"/><stop offset="55%" stop-color="#78dd63"/>
      <stop offset="100%" stop-color="#2f9e44"/>
    </linearGradient>
    <linearGradient id="body2S3_006" x1="0" y1="0" x2="1" y2="1">
      <stop offset="0%" stop-color="#78dd63"/><stop offset="100%" stop-color="#123f1e"/>
    </linearGradient>
    <linearGradient id="bellyS3_006" x1="0" y1="0" x2="0" y2="1">
      <stop offset="0%" stop-color="#ffffff" stop-opacity=".92"/><stop offset="100%" stop-color="#dcffa8"/>
    </linearGradient>
    <radialGradient id="stageS3_006" cx="50%" cy="62%" r="55%">
      <stop offset="0%" stop-color="#eaffb4" stop-opacity=".55"/><stop offset="70%" stop-color="#eaffb4" stop-opacity="0"/>
    </radialGradient>
    <radialGradient id="orbS3_006" cx="42%" cy="38%" r="65%">
      <stop offset="0%" stop-color="#ffffff" stop-opacity=".95"/>
      <stop offset="45%" stop-color="#dcffa8"/><stop offset="100%" stop-color="#2f9e44"/>
    </radialGradient>
  </defs>
  <defs>
    <linearGradient id="skyS3_006" x1="0" y1="0" x2="0" y2="1">
      <stop offset="0%" stop-color="#4fb85e"/><stop offset="50%" stop-color="#2c8a3e"/><stop offset="100%" stop-color="#0c2f16"/>
    </linearGradient>
  </defs>
  <rect x="0" y="0" width="216" height="150" fill="url(#skyS3_006)"/>
  <g fill="#1c5f2b" opacity=".85">
    <rect x="18" y="10" width="20" height="140" rx="10"/><rect x="176" y="4" width="24" height="146" rx="12"/>
  </g>
  <g fill="#134a20" opacity=".7">
    <ellipse cx="30" cy="20" rx="34" ry="20"/><ellipse cx="188" cy="14" rx="40" ry="22"/><ellipse cx="108" cy="6" rx="70" ry="18"/>
  </g>
  <polygon points="40,0 60,0 86,150 54,150" fill="#eaffb0" opacity=".10"/><polygon points="96,0 122,0 148,150 110,150" fill="#eaffb0" opacity=".10"/><polygon points="160,0 178,0 204,150 174,150" fill="#eaffb0" opacity=".10"/>
  <g fill="#2f9e44" opacity=".8">
    <path d="M46,10 q-10,10 -4,22 q10,-4 8,-20 Z"/><path d="M170,8 q10,10 4,22 q-10,-4 -6,-20 Z"/>
  </g>
  <circle cx="34" cy="52" r="1.6" fill="#f6ffcf" opacity="0.7"/><circle cx="72" cy="34" r="1.2" fill="#f6ffcf" opacity="0.6"/><circle cx="150" cy="44" r="1.6" fill="#f6ffcf" opacity="0.65"/><circle cx="186" cy="64" r="1.3" fill="#f6ffcf" opacity="0.6"/><circle cx="110" cy="28" r="1.1" fill="#f6ffcf" opacity="0.6"/><circle cx="60" cy="96" r="1.3" fill="#f6ffcf" opacity="0.6"/>
  <path d="M0,150 L0,128 Q54,140 108,130 T216,132 L216,150 Z" fill="#12451f"/>
  <path d="M12,150 C9,120 11,112 14,106" stroke="#1c5a2a" stroke-width="3" fill="none" stroke-linecap="round"/><path d="M30,150 C27,112 29,104 32,98" stroke="#1c5a2a" stroke-width="3" fill="none" stroke-linecap="round"/><path d="M190,150 C187,116 189,108 192,102" stroke="#1c5a2a" stroke-width="3" fill="none" stroke-linecap="round"/><path d="M206,150 C203,122 205,114 208,108" stroke="#1c5a2a" stroke-width="3" fill="none" stroke-linecap="round"/><path d="M150,150 C147,126 149,118 152,112" stroke="#1c5a2a" stroke-width="3" fill="none" stroke-linecap="round"/>
  <ellipse cx="108" cy="96" rx="92" ry="44" fill="url(#stageS3_006)"/><ellipse cx="108" cy="146.0" rx="47.9" ry="8.8" fill="#000" opacity=".22"/><g stroke="#123f1e" stroke-width="2.3" stroke-linejoin="round"><rect x="75.2" y="104.1" width="20.1" height="27.4" rx="7" fill="url(#body2S3_006)"/><rect x="120.8" y="104.1" width="20.1" height="27.4" rx="7" fill="url(#body2S3_006)"/><rect x="55.1" y="76.7" width="15.5" height="34.7" rx="8" fill="url(#body2S3_006)"/><rect x="145.4" y="76.7" width="15.5" height="34.7" rx="8" fill="url(#body2S3_006)"/><rect x="62.4" y="47.5" width="91.2" height="69.3" rx="20.5" fill="url(#bodyS3_006)"/><g stroke="#123f1e" stroke-width="1.4" fill="none" opacity=".5"><path d="M89.8,58.5 l8,10 l-5,8"/><path d="M130.8,91.3 l-7,8"/></g><path d="M85.2,74.304 Q87.60000000000001,76.70400000000001 85.2,79.10400000000001 Q82.8,76.70400000000001 85.2,74.304 Z" fill="#123f1e" opacity=".5"/><rect x="79.7" y="63.9" width="56.5" height="32.8" rx="9.1" fill="#123f1e" opacity=".55" stroke="none"/><ellipse cx="95.232" cy="80.352" rx="7.295999999999999" ry="8.317439999999998" fill="#eaffb4"/><circle cx="95.232" cy="81.22752" r="4.377599999999999" fill="#1a1020"/><circle cx="93.48096" cy="77.72544" r="1.7510399999999997" fill="#fff"/><ellipse cx="120.768" cy="80.352" rx="7.295999999999999" ry="8.317439999999998" fill="#eaffb4"/><circle cx="120.768" cy="81.22752" r="4.377599999999999" fill="#1a1020"/><circle cx="119.01696" cy="77.72544" r="1.7510399999999997" fill="#fff"/><path d="M94.3,96.8 q13.7,6.6 27.4,0" fill="none" stroke="#eaffb4" stroke-width="1.6" opacity=".8"/></g><g transform="rotate(-12 89.76 41.52)" stroke="#123f1e" stroke-width="1.1" stroke-linejoin="round"><path d="M89.76,30.120000000000005 Q97.74000000000001,41.52 89.76,52.92 Q81.78,41.52 89.76,30.120000000000005 Z" fill="#dcffa8"/><line x1="89.76" y1="33.540000000000006" x2="89.76" y2="49.5" stroke="#2f9e44" stroke-width="0.9"/></g><g transform="rotate(0 108 37.52)" stroke="#123f1e" stroke-width="1.1" stroke-linejoin="round"><path d="M108,22.700000000000003 Q118.374,37.52 108,52.34 Q97.626,37.52 108,22.700000000000003 Z" fill="#dcffa8"/><line x1="108" y1="27.146000000000004" x2="108" y2="47.894000000000005" stroke="#2f9e44" stroke-width="0.9"/></g><g transform="rotate(12 126.24 41.52)" stroke="#123f1e" stroke-width="1.1" stroke-linejoin="round"><path d="M126.24,30.120000000000005 Q134.22,41.52 126.24,52.92 Q118.25999999999999,41.52 126.24,30.120000000000005 Z" fill="#dcffa8"/><line x1="126.24" y1="33.540000000000006" x2="126.24" y2="49.5" stroke="#2f9e44" stroke-width="0.9"/></g></svg>