<svg viewBox="0 0 216 302" xmlns="http://www.w3.org/2000/svg">
  <defs>
    <linearGradient id="bodyS3_028" x1="0" y1="0" x2="0" y2="1">
      <stop offset="0%" stop-color="#dcffa8"/><stop offset="55%" stop-color="#78dd63"/>
      <stop offset="100%" stop-color="#2f9e44"/>
    </linearGradient>
    <linearGradient id="body2S3_028" x1="0" y1="0" x2="1" y2="1">
      <stop offset="0%" stop-color="#78dd63"/><stop offset="100%" stop-color="#123f1e"/>
    </linearGradient>
    <linearGradient id="bellyS3_028" x1="0" y1="0" x2="0" y2="1">
      <stop offset="0%" stop-color="#ffffff" stop-opacity=".92"/><stop offset="100%" stop-color="#dcffa8"/>
    </linearGradient>
    <linearGradient id="voidS3_028" x1="0" y1="0" x2="0.3" y2="1">
      <stop offset="0%" stop-color="#4c2a86"/><stop offset="55%" stop-color="#2a1352"/>
      <stop offset="100%" stop-color="#100628"/>
    </linearGradient>
    <linearGradient id="metalS3_028" x1="0" y1="0" x2="0" y2="1">
      <stop offset="0%" stop-color="#c9d2e6"/><stop offset="45%" stop-color="#7d879f"/>
      <stop offset="100%" stop-color="#333a4d"/>
    </linearGradient>
    <linearGradient id="woodS3_028" x1="0" y1="0" x2="1" y2="1">
      <stop offset="0%" stop-color="#9a6d3a"/><stop offset="100%" stop-color="#4a3016"/>
    </linearGradient>
    <radialGradient id="stageS3_028" cx="50%" cy="62%" r="55%">
      <stop offset="0%" stop-color="#eaffb4" stop-opacity=".55"/><stop offset="70%" stop-color="#eaffb4" stop-opacity="0"/>
    </radialGradient>
    <radialGradient id="orbS3_028" cx="42%" cy="38%" r="65%">
      <stop offset="0%" stop-color="#ffffff" stop-opacity=".95"/>
      <stop offset="45%" stop-color="#dcffa8"/><stop offset="100%" stop-color="#2f9e44"/>
    </radialGradient>
    <radialGradient id="haloS3_028" cx="50%" cy="50%" r="50%">
      <stop offset="60%" stop-color="#eaffb4" stop-opacity="0"/><stop offset="100%" stop-color="#eaffb4" stop-opacity=".5"/>
    </radialGradient>
    <linearGradient id="rimS3_028" x1="0" y1="0" x2="1" y2="1">
      <stop offset="0%" stop-color="#ff9bf5"/><stop offset="100%" stop-color="#eaffb4" stop-opacity=".2"/>
    </linearGradient>
  </defs>
  <defs>
    <linearGradient id="eskyS3_028" x1="0" y1="0" x2="0" y2="1">
      <stop offset="0%" stop-color="#2f8a45"/><stop offset="45%" stop-color="#155224"/>
      <stop offset="100%" stop-color="#06180c"/>
    </linearGradient>
  </defs>
  <rect width="216" height="302" fill="url(#eskyS3_028)"/>
  <rect x="98" y="-6" width="17" height="308" rx="8" fill="#123f1e" opacity="0.9"/><rect x="187" y="-6" width="18" height="308" rx="9" fill="#123f1e" opacity="0.9"/><rect x="105" y="-6" width="20" height="308" rx="10" fill="#123f1e" opacity="0.9"/>
  <ellipse cx="172" cy="23" rx="35" ry="19" fill="#0d3517" opacity="0.85"/><ellipse cx="85" cy="18" rx="41" ry="20" fill="#0d3517" opacity="0.85"/><ellipse cx="173" cy="13" rx="54" ry="17" fill="#0d3517" opacity="0.85"/><ellipse cx="67" cy="23" rx="45" ry="18" fill="#0d3517" opacity="0.85"/>
  <polygon points="164,0 123,0 216,302 93,302" fill="#eaffb0" opacity="0.08"/><polygon points="52,0 162,0 147,302 48,302" fill="#eaffb0" opacity="0.08"/><polygon points="52,0 198,0 150,302 34,302" fill="#eaffb0" opacity="0.08"/>
  <circle cx="108.8" cy="101.5" r="1.96" fill="#f6ffcf" opacity="0.51"/><circle cx="133.2" cy="136.5" r="1.09" fill="#f6ffcf" opacity="0.48"/><circle cx="80.0" cy="125.6" r="1.74" fill="#f6ffcf" opacity="0.51"/><circle cx="153.7" cy="136.9" r="1.97" fill="#f6ffcf" opacity="0.61"/><circle cx="196.0" cy="196.3" r="1.55" fill="#f6ffcf" opacity="0.40"/><circle cx="113.5" cy="79.7" r="1.58" fill="#f6ffcf" opacity="0.53"/><circle cx="185.5" cy="50.8" r="1.19" fill="#f6ffcf" opacity="0.44"/><circle cx="19.1" cy="71.4" r="1.73" fill="#f6ffcf" opacity="0.59"/><circle cx="21.3" cy="54.6" r="1.76" fill="#f6ffcf" opacity="0.65"/><circle cx="156.9" cy="34.0" r="1.48" fill="#f6ffcf" opacity="0.69"/><circle cx="60.1" cy="128.8" r="1.28" fill="#f6ffcf" opacity="0.42"/><circle cx="70.0" cy="74.9" r="2.06" fill="#f6ffcf" opacity="0.41"/><circle cx="57.1" cy="218.5" r="1.71" fill="#f6ffcf" opacity="0.64"/><circle cx="10.8" cy="157.2" r="1.45" fill="#f6ffcf" opacity="0.56"/>
  <path d="M0,302 L0,262 Q54,274 108,264 T216,266 L216,302 Z" fill="#0a2f14"/>
  <path d="M43,302 C35,272 39,244 47,220" stroke="#1c5a2a" stroke-width="4" fill="none" stroke-linecap="round"/><path d="M15,302 C7,272 11,244 19,220" stroke="#1c5a2a" stroke-width="4" fill="none" stroke-linecap="round"/><path d="M208,302 C200,272 204,244 212,220" stroke="#1c5a2a" stroke-width="4" fill="none" stroke-linecap="round"/><path d="M148,302 C140,272 144,244 152,220" stroke="#1c5a2a" stroke-width="4" fill="none" stroke-linecap="round"/>
  <ellipse cx="108" cy="250" rx="98" ry="30" fill="url(#stageS3_028)"/><g transform="translate(108 250) scale(1.28) translate(-108 -150)"><ellipse cx="108.0" cy="115.0" rx="32.0" ry="6.1" fill="#000" opacity=".24"/><path d="M79.2,118.0 q2,-6 -1,-11" fill="none" stroke="#2f9e44" stroke-width="2.2" stroke-linecap="round"/><path d="M92.0,118.0 q-2,-6 1,-11" fill="none" stroke="#2f9e44" stroke-width="2.2" stroke-linecap="round"/><path d="M127.2,118.0 q2,-6 -1,-11" fill="none" stroke="#2f9e44" stroke-width="2.2" stroke-linecap="round"/><path d="M140.0,118.0 q-2,-6 1,-11" fill="none" stroke="#2f9e44" stroke-width="2.2" stroke-linecap="round"/><g transform="rotate(90 149.6 84.0)" stroke="#123f1e" stroke-width="1.1" stroke-linejoin="round"><path d="M149.6,78.6 Q153.4,84.0 149.6,89.4 Q145.8,84.0 149.6,78.6 Z" fill="#dcffa8"/><line x1="149.6" y1="80.2" x2="149.6" y2="87.8" stroke="#2f9e44" stroke-width="0.9"/></g><g transform="rotate(130 139.9 107.0)" stroke="#123f1e" stroke-width="1.1" stroke-linejoin="round"><path d="M139.9,101.6 Q143.7,107.0 139.9,112.4 Q136.1,107.0 139.9,101.6 Z" fill="#dcffa8"/><line x1="139.9" y1="103.2" x2="139.9" y2="110.8" stroke="#2f9e44" stroke-width="0.9"/></g><g transform="rotate(170 115.2 119.2)" stroke="#123f1e" stroke-width="1.1" stroke-linejoin="round"><path d="M115.2,113.8 Q119.0,119.2 115.2,124.6 Q111.4,119.2 115.2,113.8 Z" fill="#dcffa8"/><line x1="115.2" y1="115.4" x2="115.2" y2="123.0" stroke="#2f9e44" stroke-width="0.9"/></g><g transform="rotate(210 87.2 115.0)" stroke="#123f1e" stroke-width="1.1" stroke-linejoin="round"><path d="M87.2,109.6 Q91.0,115.0 87.2,120.4 Q83.4,115.0 87.2,109.6 Z" fill="#dcffa8"/><line x1="87.2" y1="111.2" x2="87.2" y2="118.8" stroke="#2f9e44" stroke-width="0.9"/></g><g transform="rotate(250 68.9 96.2)" stroke="#123f1e" stroke-width="1.1" stroke-linejoin="round"><path d="M68.9,90.8 Q72.7,96.2 68.9,101.6 Q65.1,96.2 68.9,90.8 Z" fill="#dcffa8"/><line x1="68.9" y1="92.5" x2="68.9" y2="100.0" stroke="#2f9e44" stroke-width="0.9"/></g><g transform="rotate(290 68.9 71.8)" stroke="#123f1e" stroke-width="1.1" stroke-linejoin="round"><path d="M68.9,66.4 Q72.7,71.8 68.9,77.2 Q65.1,71.8 68.9,66.4 Z" fill="#dcffa8"/><line x1="68.9" y1="68.0" x2="68.9" y2="75.5" stroke="#2f9e44" stroke-width="0.9"/></g><g transform="rotate(330 87.2 53.0)" stroke="#123f1e" stroke-width="1.1" stroke-linejoin="round"><path d="M87.2,47.6 Q91.0,53.0 87.2,58.4 Q83.4,53.0 87.2,47.6 Z" fill="#dcffa8"/><line x1="87.2" y1="49.2" x2="87.2" y2="56.8" stroke="#2f9e44" stroke-width="0.9"/></g><g transform="rotate(370 115.2 48.8)" stroke="#123f1e" stroke-width="1.1" stroke-linejoin="round"><path d="M115.2,43.4 Q119.0,48.8 115.2,54.2 Q111.4,48.8 115.2,43.4 Z" fill="#dcffa8"/><line x1="115.2" y1="45.0" x2="115.2" y2="52.6" stroke="#2f9e44" stroke-width="0.9"/></g><g transform="rotate(410 139.9 61.0)" stroke="#123f1e" stroke-width="1.1" stroke-linejoin="round"><path d="M139.9,55.6 Q143.7,61.0 139.9,66.4 Q136.1,61.0 139.9,55.6 Z" fill="#dcffa8"/><line x1="139.9" y1="57.2" x2="139.9" y2="64.8" stroke="#2f9e44" stroke-width="0.9"/></g><path d="M85.6,77.5 q-11.5,-4 -16.0,6" fill="none" stroke="#2f9e44" stroke-width="2.4" stroke-linecap="round"/><path d="M85.6,90.5 q-11.5,-4 -16.0,6" fill="none" stroke="#2f9e44" stroke-width="2.4" stroke-linecap="round"/><path d="M85.6,103.5 q-11.5,-4 -16.0,6" fill="none" stroke="#2f9e44" stroke-width="2.4" stroke-linecap="round"/><path d="M130.4,77.5 q11.5,-4 16.0,6" fill="none" stroke="#2f9e44" stroke-width="2.4" stroke-linecap="round"/><path d="M130.4,90.5 q11.5,-4 16.0,6" fill="none" stroke="#2f9e44" stroke-width="2.4" stroke-linecap="round"/><path d="M130.4,103.5 q11.5,-4 16.0,6" fill="none" stroke="#2f9e44" stroke-width="2.4" stroke-linecap="round"/><path d="M117.9,59.9 Q119.7,63.2 118.3,66.8 Q116.9,70.4 113.5,72.3 Q110.0,74.2 106.1,73.6 Q102.2,72.9 99.6,70.0 Q97.0,67.0 98.1,63.6 Q99.1,60.1 100.2,56.0 Q101.2,51.9 105.7,51.5 Q110.2,51.2 113.2,53.9 Q116.2,56.6 117.9,59.9 Z" fill="url(#bodyS3_028)" stroke="#123f1e" stroke-width="2.1" stroke-linejoin="round"/><path d="M96.8,58.4 a11.4,8.0 0 0 1 22.4,0 q-11.4,3.2 -22.4,0 Z" fill="#2f9e44" stroke="#123f1e" stroke-width="1.5"/><g fill="none" stroke="url(#woodS3_028)" stroke-width="2.6" stroke-linecap="round"><path d="M103.3,52.0 q-2.6,-9.1 -1.3,-16.9"/><path d="M101.5,42.7 q-7.8,-2.1 -11.2,-7.8"/><path d="M102.0,38.2 q-6.0,-2.9 -7.8,-9.4"/></g><g transform="rotate(-30 94.2 35.1)" stroke="#123f1e" stroke-width="1.1" stroke-linejoin="round"><path d="M94.2,31.2 Q97.0,35.1 94.2,39.0 Q91.5,35.1 94.2,31.2 Z" fill="#dcffa8"/><line x1="94.2" y1="32.4" x2="94.2" y2="37.9" stroke="#2f9e44" stroke-width="0.9"/></g><g fill="none" stroke="url(#woodS3_028)" stroke-width="2.6" stroke-linecap="round"><path d="M112.7,52.0 q2.6,-9.1 1.3,-16.9"/><path d="M114.5,42.7 q7.8,-2.1 11.2,-7.8"/><path d="M114.0,38.2 q6.0,-2.9 7.8,-9.4"/></g><g transform="rotate(30 121.8 35.1)" stroke="#123f1e" stroke-width="1.1" stroke-linejoin="round"><path d="M121.8,31.2 Q124.5,35.1 121.8,39.0 Q119.0,35.1 121.8,31.2 Z" fill="#dcffa8"/><line x1="121.8" y1="32.4" x2="121.8" y2="37.9" stroke="#2f9e44" stroke-width="0.9"/></g><path d="M134.6,80.1 Q140.6,86.6 136.8,94.4 Q133.0,102.3 123.3,106.5 Q113.7,110.6 102.7,109.2 Q91.7,107.7 84.5,101.3 Q77.3,94.9 80.4,87.4 Q83.4,79.9 87.6,72.8 Q91.9,65.7 103.0,63.1 Q114.2,60.5 121.4,67.1 Q128.6,73.7 134.6,80.1 Z" fill="url(#bodyS3_028)" stroke="#123f1e" stroke-width="2.2" stroke-linejoin="round"/><path d="M88.2,84.5 q19.3,4.8 39.6,0" fill="none" stroke="#6b4a24" stroke-width="1.4" opacity=".55"/><path d="M88.2,91.6 q19.3,7.4 39.6,0" fill="none" stroke="#6b4a24" stroke-width="1.4" opacity=".55"/><circle cx="117.6" cy="84.7" r="2.2" fill="#ff9ec7" stroke="#123f1e" stroke-width="0.8"/><circle cx="119.0" cy="83.9" r="1.8" fill="#ff9ec7" stroke="#123f1e" stroke-width="0.8"/><circle cx="100.1" cy="87.4" r="1.8" fill="#ff9ec7" stroke="#123f1e" stroke-width="0.8"/><line x1="108.0" y1="65.3" x2="108.0" y2="106.4" stroke="#123f1e" stroke-width="1.6" opacity=".8"/><path d="M102.3,55.4 q-8.0,-9 -14.0,-7" fill="none" stroke="#123f1e" stroke-width="1.4" stroke-linecap="round"/><g transform="rotate(-30 88.3 48.4)" stroke="#123f1e" stroke-width="1.1" stroke-linejoin="round"><path d="M88.3,45.2 Q90.5,48.4 88.3,51.6 Q86.0,48.4 88.3,45.2 Z" fill="#dcffa8"/><line x1="88.3" y1="46.2" x2="88.3" y2="50.6" stroke="#2f9e44" stroke-width="0.9"/></g><path d="M113.7,55.4 q8.0,-9 14.0,-7" fill="none" stroke="#123f1e" stroke-width="1.4" stroke-linecap="round"/><g transform="rotate(30 127.7 48.4)" stroke="#123f1e" stroke-width="1.1" stroke-linejoin="round"><path d="M127.7,45.2 Q130.0,48.4 127.7,51.6 Q125.5,48.4 127.7,45.2 Z" fill="#dcffa8"/><line x1="127.7" y1="46.2" x2="127.7" y2="50.6" stroke="#2f9e44" stroke-width="0.9"/></g><ellipse cx="112.4" cy="62.7" rx="3.4" ry="3.9" fill="#ffffff"/><circle cx="112.4" cy="63.1" r="2.0" fill="#1a1020"/><circle cx="111.6" cy="61.5" r="0.8" fill="#fff"/><path d="M108.0,57.6 L116.1,61.0" stroke="#1a1020" stroke-width="1.7" stroke-linecap="round"/><path d="M108.4,59.1 q4.1,-3.0 8.1,-0.3" fill="none" stroke="#2f9e44" stroke-width="1.5" stroke-linecap="round"/><ellipse cx="120.2" cy="62.7" rx="3.1" ry="3.5" fill="#ffffff"/><circle cx="120.2" cy="63.1" r="1.9" fill="#1a1020"/><circle cx="119.5" cy="61.6" r="0.7" fill="#fff"/><path d="M116.2,58.0 L123.6,61.1" stroke="#1a1020" stroke-width="1.6" stroke-linecap="round"/><path d="M116.5,59.4 q3.7,-2.8 7.5,-0.3" fill="none" stroke="#2f9e44" stroke-width="1.5" stroke-linecap="round"/><circle cx="77.6" cy="110.9" r="1.3" fill="#f4ffce" opacity="0.82"/><circle cx="130.1" cy="59.9" r="1.4" fill="#f4ffce" opacity="0.64"/><circle cx="64.2" cy="82.7" r="1.6" fill="#f4ffce" opacity="0.59"/><circle cx="87.4" cy="46.6" r="1.3" fill="#f4ffce" opacity="0.88"/><circle cx="119.4" cy="55.4" r="1.2" fill="#f4ffce" opacity="0.58"/></g></svg>