<svg viewBox="0 0 216 150" xmlns="http://www.w3.org/2000/svg">
  <defs>
    <linearGradient id="bodyS4_042" x1="0" y1="0" x2="0" y2="1">
      <stop offset="0%" stop-color="#fff6b0"/><stop offset="55%" stop-color="#ffd21a"/>
      <stop offset="100%" stop-color="#f5a300"/>
    </linearGradient>
    <linearGradient id="body2S4_042" x1="0" y1="0" x2="1" y2="1">
      <stop offset="0%" stop-color="#ffd21a"/><stop offset="100%" stop-color="#5a3d00"/>
    </linearGradient>
    <linearGradient id="bellyS4_042" x1="0" y1="0" x2="0" y2="1">
      <stop offset="0%" stop-color="#ffffff" stop-opacity=".92"/><stop offset="100%" stop-color="#fff6b0"/>
    </linearGradient>
    <linearGradient id="voidS4_042" x1="0" y1="0" x2="0.3" y2="1">
      <stop offset="0%" stop-color="#4c2a86"/><stop offset="55%" stop-color="#2a1352"/>
      <stop offset="100%" stop-color="#100628"/>
    </linearGradient>
    <linearGradient id="metalS4_042" x1="0" y1="0" x2="0" y2="1">
      <stop offset="0%" stop-color="#c9d2e6"/><stop offset="45%" stop-color="#7d879f"/>
      <stop offset="100%" stop-color="#333a4d"/>
    </linearGradient>
    <linearGradient id="woodS4_042" x1="0" y1="0" x2="1" y2="1">
      <stop offset="0%" stop-color="#9a6d3a"/><stop offset="100%" stop-color="#4a3016"/>
    </linearGradient>
    <radialGradient id="stageS4_042" cx="50%" cy="62%" r="55%">
      <stop offset="0%" stop-color="#fff6b0" stop-opacity=".55"/><stop offset="70%" stop-color="#fff6b0" stop-opacity="0"/>
    </radialGradient>
    <radialGradient id="orbS4_042" cx="42%" cy="38%" r="65%">
      <stop offset="0%" stop-color="#ffffff" stop-opacity=".95"/>
      <stop offset="45%" stop-color="#fff6b0"/><stop offset="100%" stop-color="#f5a300"/>
    </radialGradient>
    <radialGradient id="haloS4_042" cx="50%" cy="50%" r="50%">
      <stop offset="60%" stop-color="#fff6b0" stop-opacity="0"/><stop offset="100%" stop-color="#fff6b0" stop-opacity=".5"/>
    </radialGradient>
    <linearGradient id="rimS4_042" x1="0" y1="0" x2="1" y2="1">
      <stop offset="0%" stop-color="#ff9bf5"/><stop offset="100%" stop-color="#fff6b0" stop-opacity=".2"/>
    </linearGradient>
  </defs>
  <defs>
    <linearGradient id="skyS4_042" x1="0" y1="0" x2="0" y2="1">
      <stop offset="0%" stop-color="#2b2f45"/><stop offset="55%" stop-color="#3a3320"/><stop offset="100%" stop-color="#14140c"/>
    </linearGradient>
  </defs>
  <rect x="0" y="0" width="216" height="150" fill="url(#skyS4_042)"/>
  <g fill="#20233a" opacity=".9">
    <ellipse cx="50" cy="26" rx="52" ry="22"/><ellipse cx="150" cy="18" rx="60" ry="24"/><ellipse cx="200" cy="40" rx="40" ry="20"/>
  </g>
  <polyline points="150,2 138,40 150,40 132,86" fill="none" stroke="#fff29a" stroke-width="2" opacity=".35"/><polyline points="44,0 34,30 44,30 30,64" fill="none" stroke="#fff29a" stroke-width="2" opacity=".35"/>
  <line x1="30" y1="20" x2="26" y2="36" stroke="#cfe0ff" stroke-width="1" opacity=".2"/><line x1="70" y1="50" x2="66" y2="66" stroke="#cfe0ff" stroke-width="1" opacity=".2"/><line x1="110" y1="10" x2="106" y2="26" stroke="#cfe0ff" stroke-width="1" opacity=".2"/><line x1="150" y1="60" x2="146" y2="76" stroke="#cfe0ff" stroke-width="1" opacity=".2"/><line x1="190" y1="30" x2="186" y2="46" stroke="#cfe0ff" stroke-width="1" opacity=".2"/><line x1="90" y1="90" x2="86" y2="106" stroke="#cfe0ff" stroke-width="1" opacity=".2"/><line x1="200" y1="90" x2="196" y2="106" stroke="#cfe0ff" stroke-width="1" opacity=".2"/>
  <path d="M60.0,37.6 L60.7,39.3 L62.4,40.0 L60.7,40.7 L60.0,42.4 L59.3,40.7 L57.6,40.0 L59.3,39.3 Z" fill="#fff6b0" opacity="0.8"/><path d="M170.0,50.0 L170.6,51.4 L172.0,52.0 L170.6,52.6 L170.0,54.0 L169.4,52.6 L168.0,52.0 L169.4,51.4 Z" fill="#fff6b0" opacity="0.7"/><path d="M120.0,27.8 L120.6,29.4 L122.2,30.0 L120.6,30.6 L120.0,32.2 L119.4,30.6 L117.8,30.0 L119.4,29.4 Z" fill="#fff6b0" opacity="0.75"/><path d="M48.0,94.2 L48.5,95.5 L49.8,96.0 L48.5,96.5 L48.0,97.8 L47.5,96.5 L46.2,96.0 L47.5,95.5 Z" fill="#fff6b0" opacity="0.7"/><path d="M196.0,98.0 L196.6,99.4 L198.0,100.0 L196.6,100.6 L196.0,102.0 L195.4,100.6 L194.0,100.0 L195.4,99.4 Z" fill="#fff6b0" opacity="0.7"/>
  <g stroke="#101218" stroke-width="2" fill="none" opacity=".75"><path d="M14,130 L22,86 L30,130 M17,112 L27,112 M19,98 L25,98"/></g><g stroke="#101218" stroke-width="2" fill="none" opacity=".75"><path d="M188,130 L196,78 L204,130 M191,109 L201,109 M193,93 L199,93"/></g>
  <path d="M0,150 L0,126 Q54,138 108,128 T216,130 L216,150 Z" fill="#181812"/>
  <ellipse cx="108" cy="92" rx="92" ry="44" fill="url(#stageS4_042)"/><ellipse cx="108.0" cy="116.0" rx="29.8" ry="5.4" fill="#000" opacity=".26"/><polyline points="81.2,119.0 96.1,115.0 91.6,120.0 111.0,116.0" fill="none" stroke="#fff6b0" stroke-width="1.3" opacity=".8"/><path d="M108.0,69.2 Q78.2,53.8 80.2,73.0 Q88.8,76.9 108.0,74.0 Z" fill="url(#bodyS4_042)" stroke="#5a3d00" stroke-width="1.9"/><path d="M108.0,75.4 Q86.9,81.7 89.8,91.3 Q98.4,88.4 108.0,78.8 Z" fill="url(#body2S4_042)" stroke="#5a3d00" stroke-width="1.7"/><path d="M91.7,62.8 L92.7,65.3 L95.2,66.3 L92.7,67.3 L91.7,69.8 L90.7,67.3 L88.2,66.3 L90.7,65.3 Z" fill="#fff6b0" opacity="0.85"/><path d="M94.6,80.7 L95.4,82.8 L97.4,83.6 L95.4,84.4 L94.6,86.5 L93.8,84.4 L91.7,83.6 L93.8,82.8 Z" fill="#fff6b0" opacity="0.85"/><path d="M108.0,69.2 Q137.8,53.8 135.8,73.0 Q127.2,76.9 108.0,74.0 Z" fill="url(#bodyS4_042)" stroke="#5a3d00" stroke-width="1.9"/><path d="M108.0,75.4 Q129.1,81.7 126.2,91.3 Q117.6,88.4 108.0,78.8 Z" fill="url(#body2S4_042)" stroke="#5a3d00" stroke-width="1.7"/><path d="M124.3,62.8 L125.3,65.3 L127.8,66.3 L125.3,67.3 L124.3,69.8 L123.3,67.3 L120.8,66.3 L123.3,65.3 Z" fill="#fff6b0" opacity="0.85"/><path d="M121.4,80.7 L122.2,82.8 L124.3,83.6 L122.2,84.4 L121.4,86.5 L120.6,84.4 L118.6,83.6 L120.6,82.8 Z" fill="#fff6b0" opacity="0.85"/><ellipse cx="108.0" cy="76.9" rx="4.3" ry="10.6" fill="url(#bellyS4_042)" stroke="#5a3d00" stroke-width="1.6"/><path d="M102.7,61.1 L104.5,59.3 L111.5,59.3 L113.3,61.1 L113.3,67.7 L111.5,69.5 L104.5,69.5 L102.7,67.7 Z" fill="url(#bodyS4_042)" stroke="#5a3d00" stroke-width="2.1" stroke-linejoin="round"/><rect x="102.8" y="62.6" width="10.3" height="2.6" rx="0.8" fill="#241f14" opacity=".75"/><path d="M105.0,60.6 q-9.0,-10 -15.0,-8" fill="none" stroke="#5a3d00" stroke-width="1.5" stroke-linecap="round"/><g transform="rotate(-30 93.0 52.6)" stroke="#5a3d00" stroke-width="1.1" stroke-linejoin="round"><polygon points="92.3,49.2 94.7,49.2 93.2,52.4 94.5,52.4 91.8,56.0 92.9,52.7 91.3,52.7 93.0,51.9" fill="#fff6b0"/></g><path d="M111.0,60.6 q9.0,-10 15.0,-8" fill="none" stroke="#5a3d00" stroke-width="1.5" stroke-linecap="round"/><g transform="rotate(30 123.0 52.6)" stroke="#5a3d00" stroke-width="1.1" stroke-linejoin="round"><polygon points="122.3,49.2 124.7,49.2 123.2,52.4 124.5,52.4 121.8,56.0 122.9,52.7 121.3,52.7 123.0,51.9" fill="#fff6b0"/></g><rect x="107.3" y="62.6" width="4.0" height="3.0" rx="0.8" fill="#fff6b0" stroke="#5a3d00" stroke-width="1.2"/><rect x="108.8" y="63.1" width="1.0" height="2.1" rx="0.4" fill="#1a1020"/><rect x="111.5" y="62.8" width="3.7" height="2.7" rx="0.7" fill="#fff6b0" stroke="#5a3d00" stroke-width="1.2"/><rect x="112.9" y="63.2" width="1.0" height="1.9" rx="0.4" fill="#1a1020"/><path d="M112.3,48.6 L112.7,49.4 L113.5,49.8 L112.7,50.1 L112.3,51.0 L112.0,50.1 L111.1,49.8 L112.0,49.4 Z" fill="#fff6b0" opacity="0.7438698141108592"/><path d="M150.9,68.6 L151.2,69.5 L152.1,69.8 L151.2,70.2 L150.9,71.1 L150.6,70.2 L149.7,69.8 L150.6,69.5 Z" fill="#fff6b0" opacity="0.5420675650434883"/><path d="M141.0,62.7 L141.3,63.6 L142.2,63.9 L141.3,64.3 L141.0,65.2 L140.6,64.3 L139.7,63.9 L140.6,63.6 Z" fill="#fff6b0" opacity="0.8592033852633104"/><path d="M109.9,105.4 L110.3,106.3 L111.2,106.6 L110.3,107.0 L109.9,107.9 L109.6,107.0 L108.7,106.6 L109.6,106.3 Z" fill="#fff6b0" opacity="0.8645450003280049"/><path d="M88.0,90.7 L88.6,92.2 L90.0,92.7 L88.6,93.3 L88.0,94.7 L87.5,93.3 L86.1,92.7 L87.5,92.2 Z" fill="#fff6b0" opacity="0.6460746595384901"/></svg>