<svg viewBox="0 0 216 150" xmlns="http://www.w3.org/2000/svg">
  <defs>
    <linearGradient id="bodyS4_021" x1="0" y1="0" x2="0" y2="1">
      <stop offset="0%" stop-color="#fff6b0"/><stop offset="55%" stop-color="#ffd21a"/>
      <stop offset="100%" stop-color="#f5a300"/>
    </linearGradient>
    <linearGradient id="body2S4_021" x1="0" y1="0" x2="1" y2="1">
      <stop offset="0%" stop-color="#ffd21a"/><stop offset="100%" stop-color="#5a3d00"/>
    </linearGradient>
    <linearGradient id="bellyS4_021" x1="0" y1="0" x2="0" y2="1">
      <stop offset="0%" stop-color="#ffffff" stop-opacity=".92"/><stop offset="100%" stop-color="#fff6b0"/>
    </linearGradient>
    <radialGradient id="stageS4_021" cx="50%" cy="62%" r="55%">
      <stop offset="0%" stop-color="#fff6b0" stop-opacity=".55"/><stop offset="70%" stop-color="#fff6b0" stop-opacity="0"/>
    </radialGradient>
    <radialGradient id="orbS4_021" cx="42%" cy="38%" r="65%">
      <stop offset="0%" stop-color="#ffffff" stop-opacity=".95"/>
      <stop offset="45%" stop-color="#fff6b0"/><stop offset="100%" stop-color="#f5a300"/>
    </radialGradient>
  </defs>
  <defs>
    <linearGradient id="skyS4_021" x1="0" y1="0" x2="0" y2="1">
      <stop offset="0%" stop-color="#2b2f45"/><stop offset="55%" stop-color="#3a3320"/><stop offset="100%" stop-color="#14140c"/>
    </linearGradient>
  </defs>
  <rect x="0" y="0" width="216" height="150" fill="url(#skyS4_021)"/>
  <g fill="#20233a" opacity=".9">
    <ellipse cx="50" cy="26" rx="52" ry="22"/><ellipse cx="150" cy="18" rx="60" ry="24"/><ellipse cx="200" cy="40" rx="40" ry="20"/>
  </g>
  <polyline points="150,2 138,40 150,40 132,86" fill="none" stroke="#fff29a" stroke-width="2" opacity=".35"/><polyline points="44,0 34,30 44,30 30,64" fill="none" stroke="#fff29a" stroke-width="2" opacity=".35"/>
  <line x1="30" y1="20" x2="26" y2="36" stroke="#cfe0ff" stroke-width="1" opacity=".2"/><line x1="70" y1="50" x2="66" y2="66" stroke="#cfe0ff" stroke-width="1" opacity=".2"/><line x1="110" y1="10" x2="106" y2="26" stroke="#cfe0ff" stroke-width="1" opacity=".2"/><line x1="150" y1="60" x2="146" y2="76" stroke="#cfe0ff" stroke-width="1" opacity=".2"/><line x1="190" y1="30" x2="186" y2="46" stroke="#cfe0ff" stroke-width="1" opacity=".2"/><line x1="90" y1="90" x2="86" y2="106" stroke="#cfe0ff" stroke-width="1" opacity=".2"/><line x1="200" y1="90" x2="196" y2="106" stroke="#cfe0ff" stroke-width="1" opacity=".2"/>
  <path d="M60,37.6 L60.672,39.328 L62.4,40 L60.672,40.672 L60,42.4 L59.328,40.672 L57.6,40 L59.328,39.328 Z" fill="#fff6b0" opacity="0.8"/><path d="M170,50 L170.56,51.44 L172,52 L170.56,52.56 L170,54 L169.44,52.56 L168,52 L169.44,51.44 Z" fill="#fff6b0" opacity="0.7"/><path d="M120,27.8 L120.616,29.384 L122.2,30 L120.616,30.616 L120,32.2 L119.384,30.616 L117.8,30 L119.384,29.384 Z" fill="#fff6b0" opacity="0.75"/><path d="M48,94.2 L48.504,95.496 L49.8,96 L48.504,96.504 L48,97.8 L47.496,96.504 L46.2,96 L47.496,95.496 Z" fill="#fff6b0" opacity="0.7"/><path d="M196,98 L196.56,99.44 L198,100 L196.56,100.56 L196,102 L195.44,100.56 L194,100 L195.44,99.44 Z" fill="#fff6b0" opacity="0.7"/>
  <path d="M0,150 L0,126 Q54,138 108,128 T216,130 L216,150 Z" fill="#181812"/>
  <ellipse cx="108" cy="92" rx="92" ry="44" fill="url(#stageS4_021)"/><ellipse cx="108" cy="131.6" rx="35.1" ry="6.3" fill="#000" opacity=".22"/><g stroke="#5a3d00" stroke-width="2.3" stroke-linejoin="round" stroke-linecap="round"><rect x="92.5" y="92.8" width="10.3" height="34.9" rx="5.2" fill="url(#body2S4_021)"/><rect x="114.5" y="92.8" width="10.3" height="34.9" rx="5.2" fill="url(#body2S4_021)"/><path d="M135.5,88.0 q17.2,-4.816 18.92,-21.672" fill="none" stroke="#5a3d00" stroke-width="5.5"/><ellipse cx="108" cy="88" rx="34.4" ry="24.08" fill="url(#bodyS4_021)"/><ellipse cx="106.28" cy="96.1872" rx="18.92" ry="12.5216" fill="url(#bellyS4_021)" stroke="none"/><path d="M114.88,83.172 L115.5576,84.9144 L117.3,85.592 L115.5576,86.2696 L114.88,88.012 L114.2024,86.2696 L112.46,85.592 L114.2024,84.9144 Z" fill="#fff6b0" opacity="0.85"/><rect x="85.0" y="94.0" width="10.3" height="36.1" rx="5.2" fill="url(#bodyS4_021)"/><ellipse cx="90.112" cy="130.5" rx="6.4" ry="4.1" fill="#f5a300"/><rect x="122.1" y="94.0" width="10.3" height="36.1" rx="5.2" fill="url(#bodyS4_021)"/><ellipse cx="127.264" cy="130.5" rx="6.4" ry="4.1" fill="#f5a300"/><circle cx="85.3" cy="75.5" r="17.2" fill="url(#bodyS4_021)"/><circle cx="83.6" cy="64.4" r="4.8" fill="url(#bodyS4_021)"/><circle cx="94.8" cy="65.4" r="4.8" fill="url(#bodyS4_021)"/><ellipse cx="72.9" cy="81.3" rx="7.2" ry="5.5" fill="url(#bodyS4_021)"/><circle cx="67.8" cy="79.6" r="2.2" fill="#5a3d00"/><ellipse cx="79.448" cy="74.79039999999999" rx="4.128" ry="4.70592" fill="#fff6b0"/><circle cx="76.9712" cy="75.28576" r="2.4768" fill="#1a1020"/><circle cx="75.98048" cy="73.30431999999999" r="0.99072" fill="#fff"/><ellipse cx="88.04799999999999" cy="75.1344" rx="3.7977600000000002" ry="4.3294464" fill="#fff6b0"/><circle cx="85.57119999999999" cy="75.5901312" r="2.2786560000000002" fill="#1a1020"/><circle cx="84.65973759999999" cy="73.7672064" r="0.9114624" fill="#fff"/><path d="M69.0,84.4 q6.02,5.159999999999999 12.04,0" fill="none" stroke="#5a3d00" stroke-width="1.5"/></g><g stroke="#5a3d00" stroke-width="1.8" stroke-linejoin="round" fill="#fff6b0"><path d="M71.5,69.0 q-12,-2 -18,-9 q10,-1 16,4 Z"/><path d="M80.1,62.2 q-2,-12 -8,-17 q0,10 3,17 Z"/></g><g fill="url(#body2S4_021)" stroke="#5a3d00" stroke-width="1.6" stroke-linejoin="round"><path d="M89.24,65.64 L94.24,55.64 L99.24,65.64 Z"/><path d="M103.72,62.2 L109.72,49.2 L115.72,62.2 Z"/><path d="M120.2,67.36 L125.2,57.36 L130.2,67.36 Z"/></g></svg>