<svg viewBox="0 0 216 150" xmlns="http://www.w3.org/2000/svg">
  <defs>
    <linearGradient id="bodyS5_050" x1="0" y1="0" x2="0" y2="1">
      <stop offset="0%" stop-color="#e2c8ff"/><stop offset="55%" stop-color="#a06cf6"/>
      <stop offset="100%" stop-color="#5b2bb3"/>
    </linearGradient>
    <linearGradient id="body2S5_050" x1="0" y1="0" x2="1" y2="1">
      <stop offset="0%" stop-color="#a06cf6"/><stop offset="100%" stop-color="#160a2e"/>
    </linearGradient>
    <linearGradient id="bellyS5_050" x1="0" y1="0" x2="0" y2="1">
      <stop offset="0%" stop-color="#ffffff" stop-opacity=".92"/><stop offset="100%" stop-color="#e2c8ff"/>
    </linearGradient>
    <linearGradient id="voidS5_050" x1="0" y1="0" x2="0.3" y2="1">
      <stop offset="0%" stop-color="#4c2a86"/><stop offset="55%" stop-color="#2a1352"/>
      <stop offset="100%" stop-color="#100628"/>
    </linearGradient>
    <linearGradient id="metalS5_050" x1="0" y1="0" x2="0" y2="1">
      <stop offset="0%" stop-color="#c9d2e6"/><stop offset="45%" stop-color="#7d879f"/>
      <stop offset="100%" stop-color="#333a4d"/>
    </linearGradient>
    <linearGradient id="woodS5_050" x1="0" y1="0" x2="1" y2="1">
      <stop offset="0%" stop-color="#9a6d3a"/><stop offset="100%" stop-color="#4a3016"/>
    </linearGradient>
    <radialGradient id="stageS5_050" cx="50%" cy="62%" r="55%">
      <stop offset="0%" stop-color="#ecd8ff" stop-opacity=".55"/><stop offset="70%" stop-color="#ecd8ff" stop-opacity="0"/>
    </radialGradient>
    <radialGradient id="orbS5_050" cx="42%" cy="38%" r="65%">
      <stop offset="0%" stop-color="#ffffff" stop-opacity=".95"/>
      <stop offset="45%" stop-color="#e2c8ff"/><stop offset="100%" stop-color="#5b2bb3"/>
    </radialGradient>
    <radialGradient id="haloS5_050" cx="50%" cy="50%" r="50%">
      <stop offset="60%" stop-color="#ecd8ff" stop-opacity="0"/><stop offset="100%" stop-color="#ecd8ff" stop-opacity=".5"/>
    </radialGradient>
    <linearGradient id="rimS5_050" x1="0" y1="0" x2="1" y2="1">
      <stop offset="0%" stop-color="#ff9bf5"/><stop offset="100%" stop-color="#ecd8ff" stop-opacity=".2"/>
    </linearGradient><clipPath id="clS5_050_1"><path d="M108,66 C74,18 24,12 0,34 C16,36 28,44 34,54 C12,52 2,60 4,74 C28,62 56,68 78,88 Z"/></clipPath><clipPath id="clS5_050_2"><path d="M108,66 C142,18 192,12 216,34 C200,36 188,44 182,54 C204,52 214,60 212,74 C188,62 160,68 138,88 Z"/></clipPath><clipPath id="clS5_050_3"><path d="M108,52 C122,52 130,70 126,96 C124,114 116,128 108,140 C100,128 92,114 90,96 C86,70 94,52 108,52 Z"/></clipPath><clipPath id="clS5_050_4"><path d="M108,26 C120,26 127,36 125,48 C123,58 116,63 108,63 C100,63 93,58 91,48 C89,36 96,26 108,26 Z"/></clipPath>
  </defs>
  <defs>
    <radialGradient id="skyS5_050" cx="52%" cy="40%" r="80%">
      <stop offset="0%" stop-color="#271248"/><stop offset="55%" stop-color="#140925"/><stop offset="100%" stop-color="#05020f"/>
    </radialGradient>
    <radialGradient id="nebS5_050" cx="50%" cy="46%" r="42%">
      <stop offset="0%" stop-color="#7a4fdd" stop-opacity=".3"/><stop offset="100%" stop-color="#7a4fdd" stop-opacity="0"/>
    </radialGradient>
    <radialGradient id="neb2S5_050" cx="26%" cy="70%" r="46%">
      <stop offset="0%" stop-color="#ff6fd8" stop-opacity=".16"/><stop offset="100%" stop-color="#ff6fd8" stop-opacity="0"/>
    </radialGradient>
    <linearGradient id="orb2S5_050" x1="0" y1="0" x2="1" y2="1">
      <stop offset="0%" stop-color="#4a2b7a"/><stop offset="100%" stop-color="#150a2c"/>
    </linearGradient>
  </defs>
  <rect x="0" y="0" width="216" height="150" fill="url(#skyS5_050)"/>
  <ellipse cx="108" cy="70" rx="96" ry="66" fill="url(#nebS5_050)"/>
  <ellipse cx="60" cy="104" rx="86" ry="52" fill="url(#neb2S5_050)"/>
  <path d="M26.0,24.0 L26.6,25.4 L28.0,26.0 L26.6,26.6 L26.0,28.0 L25.4,26.6 L24.0,26.0 L25.4,25.4 Z" fill="#ffffff" opacity="0.9"/><path d="M64.0,12.6 L64.4,13.6 L65.4,14.0 L64.4,14.4 L64.0,15.4 L63.6,14.4 L62.6,14.0 L63.6,13.6 Z" fill="#ffffff" opacity="0.7"/><path d="M96.0,32.3 L96.5,33.5 L97.7,34.0 L96.5,34.5 L96.0,35.7 L95.5,34.5 L94.3,34.0 L95.5,33.5 Z" fill="#ffffff" opacity="0.8"/><path d="M140.0,16.7 L140.4,17.6 L141.3,18.0 L140.4,18.4 L140.0,19.3 L139.6,18.4 L138.7,18.0 L139.6,17.6 Z" fill="#ffffff" opacity="0.7"/><path d="M178.0,28.0 L178.6,29.4 L180.0,30.0 L178.6,30.6 L178.0,32.0 L177.4,30.6 L176.0,30.0 L177.4,29.4 Z" fill="#ffffff" opacity="0.85"/><path d="M200.0,58.5 L200.4,59.6 L201.5,60.0 L200.4,60.4 L200.0,61.5 L199.6,60.4 L198.5,60.0 L199.6,59.6 Z" fill="#ffffff" opacity="0.7"/><path d="M40.0,68.7 L40.4,69.6 L41.3,70.0 L40.4,70.4 L40.0,71.3 L39.6,70.4 L38.7,70.0 L39.6,69.6 Z" fill="#ffffff" opacity="0.6"/><path d="M120.0,94.6 L120.4,95.6 L121.4,96.0 L120.4,96.4 L120.0,97.4 L119.6,96.4 L118.6,96.0 L119.6,95.6 Z" fill="#ffffff" opacity="0.6"/><path d="M190.0,102.4 L190.4,103.6 L191.6,104.0 L190.4,104.4 L190.0,105.6 L189.6,104.4 L188.4,104.0 L189.6,103.6 Z" fill="#ffffff" opacity="0.7"/><path d="M54.0,110.8 L54.3,111.7 L55.2,112.0 L54.3,112.3 L54.0,113.2 L53.7,112.3 L52.8,112.0 L53.7,111.7 Z" fill="#ffffff" opacity="0.6"/><path d="M150.0,56.8 L150.3,57.7 L151.2,58.0 L150.3,58.3 L150.0,59.2 L149.7,58.3 L148.8,58.0 L149.7,57.7 Z" fill="#ffffff" opacity="0.6"/><path d="M84.0,70.9 L84.3,71.7 L85.1,72.0 L84.3,72.3 L84.0,73.1 L83.7,72.3 L82.9,72.0 L83.7,71.7 Z" fill="#ffffff" opacity="0.6"/><path d="M12.0,44.9 L12.3,45.7 L13.1,46.0 L12.3,46.3 L12.0,47.1 L11.7,46.3 L10.9,46.0 L11.7,45.7 Z" fill="#ffffff" opacity="0.55"/><path d="M168.0,81.0 L168.3,81.7 L169.0,82.0 L168.3,82.3 L168.0,83.0 L167.7,82.3 L167.0,82.0 L167.7,81.7 Z" fill="#ffffff" opacity="0.5"/>
  <g opacity=".85">
    <circle cx="176" cy="34" r="19" fill="url(#orb2S5_050)"/>
    <circle cx="176" cy="34" r="19" fill="none" stroke="#9c7bdc" stroke-width="0.8" opacity=".7"/>
    <ellipse cx="176" cy="34" rx="30" ry="8" fill="none" stroke="#d9c6ff" stroke-width="1.6" opacity=".55" transform="rotate(-18 176 34)"/>
    <ellipse cx="176" cy="34" rx="36" ry="10" fill="none" stroke="#b79bff" stroke-width="0.9" opacity=".4" transform="rotate(-18 176 34)"/>
  </g>
  <circle cx="48" cy="44" r="1" fill="#cdb3ff" opacity="0.5"/><circle cx="150" cy="40" r="1.2" fill="#cdb3ff" opacity="0.5"/><circle cx="180" cy="80" r="1" fill="#cdb3ff" opacity="0.45"/><circle cx="70" cy="100" r="1" fill="#cdb3ff" opacity="0.45"/>
  <path d="M0,150 L0,132 Q54,142 108,133 T216,135 L216,150 Z" fill="#0b0620"/>
  <path d="M0,134 Q54,144 108,135 T216,137" fill="none" stroke="#a06cf6" stroke-width="1" opacity=".5"/>
  <ellipse cx="108" cy="96" rx="78" ry="34" fill="url(#stageS5_050)" opacity=".45"/><g><line x1="144.0" y1="60.0" x2="166.3" y2="60.0" stroke="#ecd8ff" stroke-width="1.5" opacity="0.42" stroke-linecap="round"/><line x1="143.6" y1="65.6" x2="159.9" y2="68.2" stroke="#ecd8ff" stroke-width="1.5" opacity="0.42" stroke-linecap="round"/><line x1="142.2" y1="71.1" x2="163.5" y2="78.0" stroke="#ecd8ff" stroke-width="1.5" opacity="0.42" stroke-linecap="round"/><line x1="140.1" y1="76.3" x2="154.8" y2="83.9" stroke="#ecd8ff" stroke-width="1.5" opacity="0.42" stroke-linecap="round"/><line x1="137.1" y1="81.2" x2="155.2" y2="94.3" stroke="#ecd8ff" stroke-width="1.5" opacity="0.42" stroke-linecap="round"/><line x1="133.5" y1="85.5" x2="145.2" y2="97.2" stroke="#ecd8ff" stroke-width="1.5" opacity="0.42" stroke-linecap="round"/><line x1="129.2" y1="89.1" x2="142.3" y2="107.2" stroke="#ecd8ff" stroke-width="1.5" opacity="0.42" stroke-linecap="round"/><line x1="124.3" y1="92.1" x2="131.9" y2="106.8" stroke="#ecd8ff" stroke-width="1.5" opacity="0.42" stroke-linecap="round"/><line x1="119.1" y1="94.2" x2="126.0" y2="115.5" stroke="#ecd8ff" stroke-width="1.5" opacity="0.42" stroke-linecap="round"/><line x1="113.6" y1="95.6" x2="116.2" y2="111.9" stroke="#ecd8ff" stroke-width="1.5" opacity="0.42" stroke-linecap="round"/><line x1="108.0" y1="96.0" x2="108.0" y2="118.3" stroke="#ecd8ff" stroke-width="1.5" opacity="0.42" stroke-linecap="round"/><line x1="102.4" y1="95.6" x2="99.8" y2="111.9" stroke="#ecd8ff" stroke-width="1.5" opacity="0.42" stroke-linecap="round"/><line x1="96.9" y1="94.2" x2="90.0" y2="115.5" stroke="#ecd8ff" stroke-width="1.5" opacity="0.42" stroke-linecap="round"/><line x1="91.7" y1="92.1" x2="84.1" y2="106.8" stroke="#ecd8ff" stroke-width="1.5" opacity="0.42" stroke-linecap="round"/><line x1="86.8" y1="89.1" x2="73.7" y2="107.2" stroke="#ecd8ff" stroke-width="1.5" opacity="0.42" stroke-linecap="round"/><line x1="82.5" y1="85.5" x2="70.8" y2="97.2" stroke="#ecd8ff" stroke-width="1.5" opacity="0.42" stroke-linecap="round"/><line x1="78.9" y1="81.2" x2="60.8" y2="94.3" stroke="#ecd8ff" stroke-width="1.5" opacity="0.42" stroke-linecap="round"/><line x1="75.9" y1="76.3" x2="61.2" y2="83.9" stroke="#ecd8ff" stroke-width="1.5" opacity="0.42" stroke-linecap="round"/><line x1="73.8" y1="71.1" x2="52.5" y2="78.0" stroke="#ecd8ff" stroke-width="1.5" opacity="0.42" stroke-linecap="round"/><line x1="72.4" y1="65.6" x2="56.1" y2="68.2" stroke="#ecd8ff" stroke-width="1.5" opacity="0.42" stroke-linecap="round"/><line x1="72.0" y1="60.0" x2="49.7" y2="60.0" stroke="#ecd8ff" stroke-width="1.5" opacity="0.42" stroke-linecap="round"/><line x1="72.4" y1="54.4" x2="56.1" y2="51.8" stroke="#ecd8ff" stroke-width="1.5" opacity="0.42" stroke-linecap="round"/><line x1="73.8" y1="48.9" x2="52.5" y2="42.0" stroke="#ecd8ff" stroke-width="1.5" opacity="0.42" stroke-linecap="round"/><line x1="75.9" y1="43.7" x2="61.2" y2="36.1" stroke="#ecd8ff" stroke-width="1.5" opacity="0.42" stroke-linecap="round"/><line x1="78.9" y1="38.8" x2="60.8" y2="25.7" stroke="#ecd8ff" stroke-width="1.5" opacity="0.42" stroke-linecap="round"/><line x1="82.5" y1="34.5" x2="70.8" y2="22.8" stroke="#ecd8ff" stroke-width="1.5" opacity="0.42" stroke-linecap="round"/><line x1="86.8" y1="30.9" x2="73.7" y2="12.8" stroke="#ecd8ff" stroke-width="1.5" opacity="0.42" stroke-linecap="round"/><line x1="91.7" y1="27.9" x2="84.1" y2="13.2" stroke="#ecd8ff" stroke-width="1.5" opacity="0.42" stroke-linecap="round"/><line x1="96.9" y1="25.8" x2="90.0" y2="4.5" stroke="#ecd8ff" stroke-width="1.5" opacity="0.42" stroke-linecap="round"/><line x1="102.4" y1="24.4" x2="99.8" y2="8.1" stroke="#ecd8ff" stroke-width="1.5" opacity="0.42" stroke-linecap="round"/><line x1="108.0" y1="24.0" x2="108.0" y2="1.7" stroke="#ecd8ff" stroke-width="1.5" opacity="0.42" stroke-linecap="round"/><line x1="113.6" y1="24.4" x2="116.2" y2="8.1" stroke="#ecd8ff" stroke-width="1.5" opacity="0.42" stroke-linecap="round"/><line x1="119.1" y1="25.8" x2="126.0" y2="4.5" stroke="#ecd8ff" stroke-width="1.5" opacity="0.42" stroke-linecap="round"/><line x1="124.3" y1="27.9" x2="131.9" y2="13.2" stroke="#ecd8ff" stroke-width="1.5" opacity="0.42" stroke-linecap="round"/><line x1="129.2" y1="30.9" x2="142.3" y2="12.8" stroke="#ecd8ff" stroke-width="1.5" opacity="0.42" stroke-linecap="round"/><line x1="133.5" y1="34.5" x2="145.2" y2="22.8" stroke="#ecd8ff" stroke-width="1.5" opacity="0.42" stroke-linecap="round"/><line x1="137.1" y1="38.8" x2="155.2" y2="25.7" stroke="#ecd8ff" stroke-width="1.5" opacity="0.42" stroke-linecap="round"/><line x1="140.1" y1="43.7" x2="154.8" y2="36.1" stroke="#ecd8ff" stroke-width="1.5" opacity="0.42" stroke-linecap="round"/><line x1="142.2" y1="48.9" x2="163.5" y2="42.0" stroke="#ecd8ff" stroke-width="1.5" opacity="0.42" stroke-linecap="round"/><line x1="143.6" y1="54.4" x2="159.9" y2="51.8" stroke="#ecd8ff" stroke-width="1.5" opacity="0.42" stroke-linecap="round"/><circle cx="108" cy="60" r="37" fill="none" stroke="#fff2c8" stroke-width="3.4" opacity=".95"/><circle cx="108" cy="60" r="36" fill="#05020f"/><circle cx="132" cy="38" r="6.5" fill="#ffffff" opacity=".95"/><path d="M132.0,27.0 L135.1,34.9 L143.0,38.0 L135.1,41.1 L132.0,49.0 L128.9,41.1 L121.0,38.0 L128.9,34.9 Z" fill="#ffffff" opacity="0.9"/><path d="M108,66 C74,18 24,12 0,34 C16,36 28,44 34,54 C12,52 2,60 4,74 C28,62 56,68 78,88 Z" fill="url(#voidS5_050)"/><g clip-path="url(#clS5_050_1)"><path d="M108,66 C74,18 24,12 0,34 C16,36 28,44 34,54 C12,52 2,60 4,74 C28,62 56,68 78,88 Z" fill="#8a5cf0" opacity=".5"/><circle cx="33.6" cy="78.3" r="0.41" fill="#ffffff" opacity="0.45"/><circle cx="57.0" cy="66.1" r="0.80" fill="#ffffff" opacity="0.64"/><circle cx="39.3" cy="55.0" r="0.51" fill="#ffffff" opacity="0.78"/><circle cx="46.5" cy="74.8" r="0.75" fill="#ffffff" opacity="0.58"/><circle cx="29.1" cy="79.6" r="1.40" fill="#ffffff" opacity="0.68"/><circle cx="105.7" cy="50.6" r="1.30" fill="#ffffff" opacity="0.65"/><circle cx="14.9" cy="70.4" r="1.17" fill="#ffffff" opacity="0.77"/><circle cx="71.9" cy="29.1" r="0.74" fill="#ffffff" opacity="0.77"/><circle cx="83.4" cy="10.4" r="0.43" fill="#ffffff" opacity="0.91"/><circle cx="10.5" cy="10.6" r="1.47" fill="#ffffff" opacity="0.79"/><circle cx="68.7" cy="38.5" r="0.98" fill="#ffffff" opacity="0.40"/><circle cx="20.0" cy="88.3" r="1.33" fill="#ffffff" opacity="0.74"/><circle cx="50.7" cy="26.7" r="1.35" fill="#ffffff" opacity="0.87"/><circle cx="79.3" cy="61.8" r="1.50" fill="#ffffff" opacity="0.95"/><circle cx="-1.2" cy="70.5" r="0.90" fill="#ffffff" opacity="0.45"/><circle cx="49.3" cy="48.9" r="1.01" fill="#ffffff" opacity="0.86"/><circle cx="18.8" cy="45.3" r="0.88" fill="#ffffff" opacity="0.40"/><circle cx="51.8" cy="78.0" r="0.90" fill="#ffffff" opacity="0.96"/><circle cx="81.2" cy="75.5" r="1.31" fill="#ffffff" opacity="0.46"/><circle cx="107.2" cy="90.5" r="0.72" fill="#ffffff" opacity="0.74"/><circle cx="15.1" cy="69.7" r="0.58" fill="#ffffff" opacity="0.70"/><circle cx="37.5" cy="16.8" r="1.25" fill="#ffffff" opacity="0.50"/><circle cx="104.7" cy="85.4" r="1.29" fill="#ffffff" opacity="0.66"/><circle cx="83.9" cy="93.3" r="0.75" fill="#ffffff" opacity="0.46"/><circle cx="48.0" cy="11.1" r="0.35" fill="#ffffff" opacity="1.00"/><circle cx="109.9" cy="77.4" r="0.84" fill="#ffffff" opacity="0.37"/><path d="M84.3,74.6 L85.1,76.5 L87.0,77.2 L85.1,78.0 L84.3,79.9 L83.6,78.0 L81.6,77.2 L83.6,76.5 Z" fill="#ffffff" opacity="0.9"/><path d="M32.1,68.4 L32.7,70.0 L34.3,70.6 L32.7,71.2 L32.1,72.7 L31.5,71.2 L30.0,70.6 L31.5,70.0 Z" fill="#ffffff" opacity="0.9"/><path d="M86.2,27.4 L86.8,28.8 L88.2,29.4 L86.8,30.0 L86.2,31.4 L85.6,30.0 L84.2,29.4 L85.6,28.8 Z" fill="#ffffff" opacity="0.9"/></g><path d="M108,66 C74,18 24,12 0,34 C16,36 28,44 34,54 C12,52 2,60 4,74 C28,62 56,68 78,88 Z" fill="none" stroke="url(#rimS5_050)" stroke-width="1.6" opacity=".95"/><g stroke="#ecd8ff" stroke-width="1" opacity=".8"><line x1="78" y1="56" x2="50" y2="38"/><line x1="50" y1="38" x2="22" y2="30"/><line x1="22" y1="30" x2="30" y2="54"/></g><path d="M78.0,53.6 L78.7,55.3 L80.4,56.0 L78.7,56.7 L78.0,58.4 L77.3,56.7 L75.6,56.0 L77.3,55.3 Z" fill="#ffffff" opacity="0.95"/><path d="M50.0,35.6 L50.7,37.3 L52.4,38.0 L50.7,38.7 L50.0,40.4 L49.3,38.7 L47.6,38.0 L49.3,37.3 Z" fill="#ffffff" opacity="0.95"/><path d="M22.0,27.6 L22.7,29.3 L24.4,30.0 L22.7,30.7 L22.0,32.4 L21.3,30.7 L19.6,30.0 L21.3,29.3 Z" fill="#ffffff" opacity="0.95"/><path d="M30.0,51.6 L30.7,53.3 L32.4,54.0 L30.7,54.7 L30.0,56.4 L29.3,54.7 L27.6,54.0 L29.3,53.3 Z" fill="#ffffff" opacity="0.95"/><path d="M108,66 C142,18 192,12 216,34 C200,36 188,44 182,54 C204,52 214,60 212,74 C188,62 160,68 138,88 Z" fill="url(#voidS5_050)"/><g clip-path="url(#clS5_050_2)"><path d="M108,66 C142,18 192,12 216,34 C200,36 188,44 182,54 C204,52 214,60 212,74 C188,62 160,68 138,88 Z" fill="#8a5cf0" opacity=".5"/><circle cx="121.9" cy="54.1" r="1.50" fill="#ffffff" opacity="0.42"/><circle cx="192.5" cy="51.7" r="0.82" fill="#ffffff" opacity="0.81"/><circle cx="177.6" cy="42.2" r="0.58" fill="#ffffff" opacity="0.85"/><circle cx="216.6" cy="76.2" r="1.02" fill="#ffffff" opacity="0.95"/><circle cx="151.4" cy="92.8" r="1.12" fill="#ffffff" opacity="0.43"/><circle cx="130.1" cy="81.9" r="1.41" fill="#ffffff" opacity="0.40"/><circle cx="108.8" cy="50.7" r="1.12" fill="#ffffff" opacity="0.97"/><circle cx="166.7" cy="64.6" r="0.94" fill="#ffffff" opacity="0.62"/><circle cx="131.3" cy="87.7" r="1.38" fill="#ffffff" opacity="0.68"/><circle cx="206.1" cy="59.8" r="1.18" fill="#ffffff" opacity="0.45"/><circle cx="202.1" cy="20.0" r="0.86" fill="#ffffff" opacity="1.00"/><circle cx="184.3" cy="42.1" r="0.67" fill="#ffffff" opacity="0.60"/><circle cx="134.4" cy="42.5" r="0.50" fill="#ffffff" opacity="0.97"/><circle cx="210.6" cy="67.0" r="1.30" fill="#ffffff" opacity="0.95"/><circle cx="212.5" cy="25.1" r="0.57" fill="#ffffff" opacity="0.62"/><circle cx="166.6" cy="65.7" r="1.23" fill="#ffffff" opacity="0.92"/><circle cx="196.1" cy="58.8" r="0.77" fill="#ffffff" opacity="0.36"/><circle cx="130.6" cy="49.6" r="1.01" fill="#ffffff" opacity="0.50"/><circle cx="157.9" cy="66.0" r="0.71" fill="#ffffff" opacity="1.00"/><circle cx="172.7" cy="52.2" r="0.81" fill="#ffffff" opacity="0.49"/><circle cx="131.6" cy="74.2" r="0.90" fill="#ffffff" opacity="0.98"/><circle cx="191.4" cy="60.2" r="0.45" fill="#ffffff" opacity="0.74"/><circle cx="137.5" cy="57.3" r="0.66" fill="#ffffff" opacity="0.80"/><circle cx="128.9" cy="18.9" r="0.99" fill="#ffffff" opacity="0.89"/><circle cx="138.5" cy="19.7" r="1.08" fill="#ffffff" opacity="0.77"/><circle cx="115.2" cy="78.5" r="1.02" fill="#ffffff" opacity="0.41"/><path d="M149.7,67.8 L150.2,69.0 L151.3,69.4 L150.2,69.9 L149.7,71.0 L149.3,69.9 L148.1,69.4 L149.3,69.0 Z" fill="#ffffff" opacity="0.9"/><path d="M161.5,82.1 L162.2,83.9 L164.0,84.6 L162.2,85.3 L161.5,87.1 L160.8,85.3 L159.0,84.6 L160.8,83.9 Z" fill="#ffffff" opacity="0.9"/><path d="M208.8,21.1 L209.4,22.7 L211.0,23.3 L209.4,23.9 L208.8,25.5 L208.1,23.9 L206.5,23.3 L208.1,22.7 Z" fill="#ffffff" opacity="0.9"/></g><path d="M108,66 C142,18 192,12 216,34 C200,36 188,44 182,54 C204,52 214,60 212,74 C188,62 160,68 138,88 Z" fill="none" stroke="url(#rimS5_050)" stroke-width="1.6" opacity=".95"/><g stroke="#ecd8ff" stroke-width="1" opacity=".8"><line x1="138" y1="56" x2="166" y2="38"/><line x1="166" y1="38" x2="194" y2="30"/><line x1="194" y1="30" x2="186" y2="54"/></g><path d="M138.0,53.6 L138.7,55.3 L140.4,56.0 L138.7,56.7 L138.0,58.4 L137.3,56.7 L135.6,56.0 L137.3,55.3 Z" fill="#ffffff" opacity="0.95"/><path d="M166.0,35.6 L166.7,37.3 L168.4,38.0 L166.7,38.7 L166.0,40.4 L165.3,38.7 L163.6,38.0 L165.3,37.3 Z" fill="#ffffff" opacity="0.95"/><path d="M194.0,27.6 L194.7,29.3 L196.4,30.0 L194.7,30.7 L194.0,32.4 L193.3,30.7 L191.6,30.0 L193.3,29.3 Z" fill="#ffffff" opacity="0.95"/><path d="M186.0,51.6 L186.7,53.3 L188.4,54.0 L186.7,54.7 L186.0,56.4 L185.3,54.7 L183.6,54.0 L185.3,53.3 Z" fill="#ffffff" opacity="0.95"/><path d="M108,52 C122,52 130,70 126,96 C124,114 116,128 108,140 C100,128 92,114 90,96 C86,70 94,52 108,52 Z" fill="url(#voidS5_050)"/><g clip-path="url(#clS5_050_3)"><path d="M108,52 C122,52 130,70 126,96 C124,114 116,128 108,140 C100,128 92,114 90,96 C86,70 94,52 108,52 Z" fill="#8a5cf0" opacity=".35"/><circle cx="109.2" cy="130.8" r="1.47" fill="#ffffff" opacity="0.41"/><circle cx="124.2" cy="133.5" r="1.41" fill="#ffffff" opacity="0.57"/><circle cx="118.9" cy="76.8" r="0.62" fill="#ffffff" opacity="0.88"/><circle cx="96.5" cy="75.8" r="0.59" fill="#ffffff" opacity="0.80"/><circle cx="127.5" cy="54.0" r="0.98" fill="#ffffff" opacity="0.63"/><circle cx="121.8" cy="99.0" r="0.89" fill="#ffffff" opacity="0.93"/><circle cx="105.2" cy="82.5" r="0.52" fill="#ffffff" opacity="0.42"/><circle cx="106.1" cy="82.0" r="0.47" fill="#ffffff" opacity="0.87"/><circle cx="104.9" cy="84.3" r="0.70" fill="#ffffff" opacity="0.56"/><circle cx="119.3" cy="131.2" r="1.04" fill="#ffffff" opacity="0.92"/><circle cx="127.6" cy="48.8" r="0.80" fill="#ffffff" opacity="0.97"/><circle cx="126.6" cy="105.0" r="1.50" fill="#ffffff" opacity="0.85"/><circle cx="113.2" cy="140.1" r="1.22" fill="#ffffff" opacity="0.70"/><circle cx="108.5" cy="114.6" r="0.62" fill="#ffffff" opacity="0.62"/><circle cx="103.4" cy="86.5" r="0.98" fill="#ffffff" opacity="0.38"/><circle cx="88.5" cy="119.7" r="0.76" fill="#ffffff" opacity="0.63"/><circle cx="89.8" cy="110.1" r="0.71" fill="#ffffff" opacity="1.00"/><circle cx="110.8" cy="123.5" r="1.07" fill="#ffffff" opacity="0.93"/><circle cx="121.1" cy="105.4" r="0.99" fill="#ffffff" opacity="0.94"/><circle cx="124.7" cy="120.7" r="0.86" fill="#ffffff" opacity="0.69"/><circle cx="96.5" cy="75.4" r="0.49" fill="#ffffff" opacity="0.47"/><circle cx="127.4" cy="81.4" r="0.63" fill="#ffffff" opacity="0.53"/><path d="M126.4,130.0 L127.0,131.6 L128.6,132.2 L127.0,132.8 L126.4,134.4 L125.8,132.8 L124.2,132.2 L125.8,131.6 Z" fill="#ffffff" opacity="0.9"/><path d="M99.2,130.5 L99.7,131.8 L101.0,132.3 L99.7,132.8 L99.2,134.1 L98.7,132.8 L97.4,132.3 L98.7,131.8 Z" fill="#ffffff" opacity="0.9"/><path d="M93.3,61.9 L93.8,63.2 L95.1,63.7 L93.8,64.2 L93.3,65.5 L92.8,64.2 L91.5,63.7 L92.8,63.2 Z" fill="#ffffff" opacity="0.9"/></g><path d="M108,52 C122,52 130,70 126,96 C124,114 116,128 108,140 C100,128 92,114 90,96 C86,70 94,52 108,52 Z" fill="none" stroke="url(#rimS5_050)" stroke-width="1.8" opacity=".95"/><circle cx="108" cy="92" r="9" fill="url(#haloS5_050)"/><path d="M108.0,85.5 L109.8,90.2 L114.5,92.0 L109.8,93.8 L108.0,98.5 L106.2,93.8 L101.5,92.0 L106.2,90.2 Z" fill="#ffffff" opacity="1"/><path d="M108,64 C86,70 78,86 82,104" fill="none" stroke="#ff9bf5" stroke-width="1.6" opacity=".75"/><path d="M108,64 C130,70 138,86 134,104" fill="none" stroke="#ff9bf5" stroke-width="1.6" opacity=".75"/><path d="M108,26 C120,26 127,36 125,48 C123,58 116,63 108,63 C100,63 93,58 91,48 C89,36 96,26 108,26 Z" fill="url(#voidS5_050)"/><g clip-path="url(#clS5_050_4)"><path d="M108,26 C120,26 127,36 125,48 C123,58 116,63 108,63 C100,63 93,58 91,48 C89,36 96,26 108,26 Z" fill="#8a5cf0" opacity=".3"/><circle cx="104.8" cy="54.1" r="1.43" fill="#ffffff" opacity="0.49"/><circle cx="94.4" cy="52.1" r="0.61" fill="#ffffff" opacity="0.57"/><circle cx="117.5" cy="39.2" r="0.99" fill="#ffffff" opacity="0.55"/><circle cx="104.3" cy="54.8" r="0.91" fill="#ffffff" opacity="0.82"/><circle cx="116.3" cy="36.5" r="0.50" fill="#ffffff" opacity="0.68"/><circle cx="97.9" cy="37.7" r="0.46" fill="#ffffff" opacity="0.42"/><circle cx="107.9" cy="51.8" r="0.99" fill="#ffffff" opacity="0.71"/><circle cx="108.8" cy="43.4" r="1.25" fill="#ffffff" opacity="0.42"/><circle cx="120.5" cy="56.3" r="0.58" fill="#ffffff" opacity="0.43"/><circle cx="118.1" cy="33.2" r="0.88" fill="#ffffff" opacity="0.63"/><circle cx="102.3" cy="55.1" r="0.73" fill="#ffffff" opacity="0.75"/><circle cx="102.0" cy="48.3" r="0.47" fill="#ffffff" opacity="0.59"/><path d="M118.3,43.7 L118.8,45.1 L120.3,45.7 L118.8,46.2 L118.3,47.7 L117.7,46.2 L116.3,45.7 L117.7,45.1 Z" fill="#ffffff" opacity="0.9"/><path d="M107.5,47.7 L108.2,49.4 L109.8,50.1 L108.2,50.7 L107.5,52.4 L106.9,50.7 L105.2,50.1 L106.9,49.4 Z" fill="#ffffff" opacity="0.9"/><path d="M104.9,50.9 L105.7,52.8 L107.7,53.6 L105.7,54.3 L104.9,56.3 L104.2,54.3 L102.2,53.6 L104.2,52.8 Z" fill="#ffffff" opacity="0.9"/></g><path d="M108,26 C120,26 127,36 125,48 C123,58 116,63 108,63 C100,63 93,58 91,48 C89,36 96,26 108,26 Z" fill="none" stroke="url(#rimS5_050)" stroke-width="1.6" opacity=".95"/><path d="M92,34 L84,10 L102,28 Z M124,34 L132,10 L114,28 Z M108,24 L108,4 L114,22 Z" fill="url(#voidS5_050)" stroke="url(#rimS5_050)" stroke-width="1.4"/><path d="M85.0,9.4 L85.7,11.3 L87.6,12.0 L85.7,12.7 L85.0,14.6 L84.3,12.7 L82.4,12.0 L84.3,11.3 Z" fill="#ffffff" opacity="0.95"/><path d="M133.0,9.4 L133.7,11.3 L135.6,12.0 L133.7,12.7 L133.0,14.6 L132.3,12.7 L130.4,12.0 L132.3,11.3 Z" fill="#ffffff" opacity="0.95"/><path d="M109.0,3.4 L109.7,5.3 L111.6,6.0 L109.7,6.7 L109.0,8.6 L108.3,6.7 L106.4,6.0 L108.3,5.3 Z" fill="#ffffff" opacity="0.95"/><circle cx="101" cy="46" r="5.5" fill="url(#haloS5_050)"/><path d="M101.0,42.2 L102.1,44.9 L104.8,46.0 L102.1,47.1 L101.0,49.8 L99.9,47.1 L97.2,46.0 L99.9,44.9 Z" fill="#ffffff" opacity="1"/><circle cx="115" cy="46" r="5.5" fill="url(#haloS5_050)"/><path d="M115.0,42.2 L116.1,44.9 L118.8,46.0 L116.1,47.1 L115.0,49.8 L113.9,47.1 L111.2,46.0 L113.9,44.9 Z" fill="#ffffff" opacity="1"/><ellipse cx="108" cy="58" rx="46" ry="12" fill="none" stroke="#ecd8ff" stroke-width="1.6" opacity=".65" transform="rotate(-14 108 58)"/><ellipse cx="108" cy="64" rx="58" ry="16" fill="none" stroke="#ff9bf5" stroke-width="1.1" opacity=".45" transform="rotate(12 108 64)"/><path d="M34.8,108.0 L29.3,111.9 L23.2,110.1 L23.7,105.6 L29.6,103.1 Z" fill="url(#voidS5_050)" stroke="url(#rimS5_050)" stroke-width="1.2"/><path d="M28.0,105.7 L28.6,107.4 L30.3,108.0 L28.6,108.6 L28.0,110.3 L27.4,108.6 L25.7,108.0 L27.4,107.4 Z" fill="#ffffff" opacity="0.92"/><path d="M194.0,104.0 L189.8,107.3 L183.9,106.5 L184.1,101.7 L189.8,100.6 Z" fill="url(#voidS5_050)" stroke="url(#rimS5_050)" stroke-width="1.2"/><path d="M188.0,101.9 L188.6,103.4 L190.1,104.0 L188.6,104.6 L188.0,106.1 L187.4,104.6 L185.9,104.0 L187.4,103.4 Z" fill="#ffffff" opacity="0.92"/><path d="M17.2,66.0 L15.2,68.9 L11.7,67.9 L11.7,63.8 L15.5,62.7 Z" fill="url(#voidS5_050)" stroke="url(#rimS5_050)" stroke-width="1.2"/><path d="M14.0,64.3 L14.5,65.5 L15.7,66.0 L14.5,66.5 L14.0,67.7 L13.5,66.5 L12.3,66.0 L13.5,65.5 Z" fill="#ffffff" opacity="0.92"/><path d="M205.6,62.0 L201.6,66.0 L195.5,63.7 L196.3,59.7 L201.0,59.6 Z" fill="url(#voidS5_050)" stroke="url(#rimS5_050)" stroke-width="1.2"/><path d="M200.0,60.2 L200.5,61.5 L201.8,62.0 L200.5,62.5 L200.0,63.8 L199.5,62.5 L198.2,62.0 L199.5,61.5 Z" fill="#ffffff" opacity="0.92"/><path d="M63.9,132.0 L61.0,134.5 L57.5,134.1 L56.3,129.9 L61.2,128.9 Z" fill="url(#voidS5_050)" stroke="url(#rimS5_050)" stroke-width="1.2"/><path d="M60.0,130.3 L60.5,131.5 L61.7,132.0 L60.5,132.5 L60.0,133.7 L59.5,132.5 L58.3,132.0 L59.5,131.5 Z" fill="#ffffff" opacity="0.92"/><path d="M160.9,130.0 L157.5,134.3 L152.5,132.7 L152.6,127.8 L157.0,126.2 Z" fill="url(#voidS5_050)" stroke="url(#rimS5_050)" stroke-width="1.2"/><path d="M156.0,128.1 L156.5,129.5 L157.9,130.0 L156.5,130.5 L156.0,131.9 L155.5,130.5 L154.1,130.0 L155.5,129.5 Z" fill="#ffffff" opacity="0.92"/></g></svg>