<svg viewBox="0 0 216 302" xmlns="http://www.w3.org/2000/svg">
  <defs>
    <linearGradient id="bodyS5_036" x1="0" y1="0" x2="0" y2="1">
      <stop offset="0%" stop-color="#e2c8ff"/><stop offset="55%" stop-color="#a06cf6"/>
      <stop offset="100%" stop-color="#5b2bb3"/>
    </linearGradient>
    <linearGradient id="body2S5_036" x1="0" y1="0" x2="1" y2="1">
      <stop offset="0%" stop-color="#a06cf6"/><stop offset="100%" stop-color="#160a2e"/>
    </linearGradient>
    <linearGradient id="bellyS5_036" x1="0" y1="0" x2="0" y2="1">
      <stop offset="0%" stop-color="#ffffff" stop-opacity=".92"/><stop offset="100%" stop-color="#e2c8ff"/>
    </linearGradient>
    <linearGradient id="voidS5_036" x1="0" y1="0" x2="0.3" y2="1">
      <stop offset="0%" stop-color="#4c2a86"/><stop offset="55%" stop-color="#2a1352"/>
      <stop offset="100%" stop-color="#100628"/>
    </linearGradient>
    <linearGradient id="metalS5_036" x1="0" y1="0" x2="0" y2="1">
      <stop offset="0%" stop-color="#c9d2e6"/><stop offset="45%" stop-color="#7d879f"/>
      <stop offset="100%" stop-color="#333a4d"/>
    </linearGradient>
    <linearGradient id="woodS5_036" x1="0" y1="0" x2="1" y2="1">
      <stop offset="0%" stop-color="#9a6d3a"/><stop offset="100%" stop-color="#4a3016"/>
    </linearGradient>
    <radialGradient id="stageS5_036" cx="50%" cy="62%" r="55%">
      <stop offset="0%" stop-color="#ecd8ff" stop-opacity=".55"/><stop offset="70%" stop-color="#ecd8ff" stop-opacity="0"/>
    </radialGradient>
    <radialGradient id="orbS5_036" cx="42%" cy="38%" r="65%">
      <stop offset="0%" stop-color="#ffffff" stop-opacity=".95"/>
      <stop offset="45%" stop-color="#e2c8ff"/><stop offset="100%" stop-color="#5b2bb3"/>
    </radialGradient>
    <radialGradient id="haloS5_036" cx="50%" cy="50%" r="50%">
      <stop offset="60%" stop-color="#ecd8ff" stop-opacity="0"/><stop offset="100%" stop-color="#ecd8ff" stop-opacity=".5"/>
    </radialGradient>
    <linearGradient id="rimS5_036" x1="0" y1="0" x2="1" y2="1">
      <stop offset="0%" stop-color="#ff9bf5"/><stop offset="100%" stop-color="#ecd8ff" stop-opacity=".2"/>
    </linearGradient><clipPath id="clS5_036_1"><path d="M119.9,95.2 Q121.7,100.0 120.5,104.5 Q119.3,109.1 115.6,112.0 Q111.9,114.9 107.8,115.7 Q103.8,116.5 100.5,113.1 Q97.1,109.7 96.4,104.9 Q95.7,100.0 96.9,95.1 Q98.1,90.1 101.0,86.3 Q103.8,82.5 107.9,83.3 Q111.9,84.2 115.0,87.2 Q118.0,90.3 119.9,95.2 Z M107.5,106.5 a6.5,5.6 0 1 0 13.0,0 a4.7,4.0 0 1 1 -13.0,0 Z"/></clipPath>
  </defs>
  <defs>
    <radialGradient id="eskyS5_036" cx="52%" cy="34%" r="82%">
      <stop offset="0%" stop-color="#2a1450"/><stop offset="52%" stop-color="#140925"/>
      <stop offset="100%" stop-color="#05020f"/>
    </radialGradient>
    <radialGradient id="enebS5_036" cx="50%" cy="42%" r="46%">
      <stop offset="0%" stop-color="#7a4fdd" stop-opacity="0.32"/><stop offset="100%" stop-color="#7a4fdd" stop-opacity="0"/>
    </radialGradient>
    <radialGradient id="eneb2S5_036" cx="28%" cy="66%" r="48%">
      <stop offset="0%" stop-color="#ff6fd8" stop-opacity="0.16"/><stop offset="100%" stop-color="#ff6fd8" stop-opacity="0"/>
    </radialGradient>
    <radialGradient id="eorbS5_036" cx="40%" cy="36%" r="66%">
      <stop offset="0%" stop-color="#5a3a92"/><stop offset="100%" stop-color="#150a2c"/>
    </radialGradient>
  </defs>
  <rect width="216" height="302" fill="url(#eskyS5_036)"/>
  <ellipse cx="108" cy="120" rx="132" ry="120" fill="url(#enebS5_036)"/>
  <ellipse cx="64" cy="180" rx="120" ry="96" fill="url(#eneb2S5_036)"/>
  <circle cx="48.8" cy="95.7" r="0.83" fill="#ffffff" opacity="0.62"/><circle cx="172.6" cy="190.6" r="1.34" fill="#ffffff" opacity="0.57"/><circle cx="157.9" cy="159.5" r="1.16" fill="#ffffff" opacity="0.40"/><circle cx="134.3" cy="106.5" r="0.77" fill="#ffffff" opacity="0.57"/><circle cx="137.6" cy="208.0" r="1.01" fill="#ffffff" opacity="0.64"/><circle cx="129.8" cy="31.9" r="1.26" fill="#ffffff" opacity="0.53"/><circle cx="183.7" cy="73.8" r="1.34" fill="#ffffff" opacity="0.56"/><circle cx="124.6" cy="73.7" r="0.59" fill="#ffffff" opacity="0.46"/><circle cx="186.6" cy="75.1" r="1.21" fill="#ffffff" opacity="0.89"/><circle cx="31.8" cy="229.5" r="1.31" fill="#ffffff" opacity="0.42"/><circle cx="68.1" cy="28.5" r="0.72" fill="#ffffff" opacity="0.70"/><circle cx="35.0" cy="165.5" r="0.47" fill="#ffffff" opacity="0.40"/><circle cx="91.2" cy="31.4" r="0.55" fill="#ffffff" opacity="0.99"/><circle cx="20.6" cy="43.9" r="1.12" fill="#ffffff" opacity="0.44"/><circle cx="62.4" cy="135.5" r="1.26" fill="#ffffff" opacity="0.61"/><circle cx="62.8" cy="1.2" r="0.59" fill="#ffffff" opacity="0.93"/><circle cx="19.8" cy="109.1" r="1.26" fill="#ffffff" opacity="0.40"/><circle cx="18.0" cy="195.7" r="0.54" fill="#ffffff" opacity="0.67"/><circle cx="29.5" cy="9.8" r="0.49" fill="#ffffff" opacity="0.95"/><circle cx="171.8" cy="225.3" r="0.69" fill="#ffffff" opacity="0.93"/><circle cx="171.0" cy="127.8" r="0.42" fill="#ffffff" opacity="0.61"/><circle cx="131.1" cy="75.6" r="0.57" fill="#ffffff" opacity="0.68"/><circle cx="64.4" cy="58.5" r="0.52" fill="#ffffff" opacity="0.96"/><circle cx="65.6" cy="197.3" r="1.02" fill="#ffffff" opacity="0.52"/><circle cx="97.9" cy="25.1" r="1.40" fill="#ffffff" opacity="0.78"/><circle cx="193.4" cy="234.5" r="0.98" fill="#ffffff" opacity="0.38"/><circle cx="36.0" cy="131.8" r="1.02" fill="#ffffff" opacity="0.64"/><circle cx="24.7" cy="2.0" r="1.08" fill="#ffffff" opacity="0.64"/><circle cx="193.8" cy="186.1" r="1.01" fill="#ffffff" opacity="0.66"/><circle cx="169.4" cy="73.5" r="1.27" fill="#ffffff" opacity="0.97"/><circle cx="207.4" cy="92.3" r="1.38" fill="#ffffff" opacity="1.00"/><circle cx="14.9" cy="59.3" r="0.63" fill="#ffffff" opacity="0.68"/><circle cx="153.1" cy="93.5" r="0.87" fill="#ffffff" opacity="0.77"/><circle cx="127.8" cy="93.9" r="0.54" fill="#ffffff" opacity="0.60"/><circle cx="129.0" cy="145.3" r="0.54" fill="#ffffff" opacity="0.35"/><circle cx="93.2" cy="14.2" r="0.68" fill="#ffffff" opacity="0.69"/><circle cx="23.9" cy="97.8" r="0.38" fill="#ffffff" opacity="0.74"/><circle cx="214.7" cy="67.1" r="0.80" fill="#ffffff" opacity="0.46"/><circle cx="124.1" cy="208.9" r="1.47" fill="#ffffff" opacity="0.49"/><circle cx="163.8" cy="27.1" r="1.04" fill="#ffffff" opacity="0.96"/><path d="M181.3,64.5 L182.0,66.2 L183.8,66.9 L182.0,67.6 L181.3,69.4 L180.7,67.6 L178.9,66.9 L180.7,66.2 Z" fill="#ffffff" opacity="0.9"/><path d="M153.0,213.6 L153.6,215.1 L155.0,215.7 L153.6,216.2 L153.0,217.7 L152.4,216.2 L151.0,215.7 L152.4,215.1 Z" fill="#ffffff" opacity="0.9"/><path d="M138.2,48.3 L139.0,50.2 L140.8,50.9 L139.0,51.6 L138.2,53.5 L137.5,51.6 L135.6,50.9 L137.5,50.2 Z" fill="#ffffff" opacity="0.9"/>
  <g opacity="0.9">
    <circle cx="111" cy="34" r="22" fill="url(#eorbS5_036)"/>
    <circle cx="111" cy="34" r="22" fill="none" stroke="#9c7bdc" stroke-width="0.8" opacity="0.7"/>
    <ellipse cx="111" cy="34" rx="38" ry="9" fill="none"
             stroke="#d9c6ff" stroke-width="1.6" opacity="0.5" transform="rotate(-25 111 34)"/>
  </g>
  <path d="M38,187 l7,-6 l3,10 l-5,6 Z" fill="#4a2b7a" stroke="#9c7bdc" stroke-width="0.7" opacity="0.7"/><path d="M175,77 l8,-7 l5,11 l-6,8 Z" fill="#4a2b7a" stroke="#9c7bdc" stroke-width="0.7" opacity="0.7"/><path d="M153,167 l8,-4 l4,10 l-6,7 Z" fill="#4a2b7a" stroke="#9c7bdc" stroke-width="0.7" opacity="0.7"/><path d="M77,68 l9,-4 l4,8 l-4,5 Z" fill="#4a2b7a" stroke="#9c7bdc" stroke-width="0.7" opacity="0.7"/><path d="M204,181 l7,-6 l4,11 l-4,8 Z" fill="#4a2b7a" stroke="#9c7bdc" stroke-width="0.7" opacity="0.7"/>
  <path d="M0,302 L0,262 Q54,272 108,263 T216,265 L216,302 Z" fill="#0b0620"/>
  <path d="M0,264 Q54,274 108,265 T216,267" fill="none" stroke="#a06cf6" stroke-width="1" opacity="0.5"/>
  <ellipse cx="108" cy="250" rx="92" ry="30" fill="url(#stageS5_036)" opacity="0.55"/><g transform="translate(108 250) scale(1.28) translate(-108 -150)"><ellipse cx="108.0" cy="125.0" rx="15.1" ry="3.0" fill="#05020f" opacity=".65"/><ellipse cx="108.0" cy="125.0" rx="17.9" ry="3.9" fill="none" stroke="#ecd8ff" stroke-width="1" opacity=".38"/><ellipse cx="108.0" cy="94.9" rx="25.9" ry="7.4" fill="none" stroke="#ecd8ff" stroke-width="1.6" opacity="0.70" transform="rotate(-22 108.0 94.9)"/><ellipse cx="108.0" cy="94.9" rx="31.4" ry="9.9" fill="none" stroke="#ff9bf5" stroke-width="1.1" opacity="0.45" transform="rotate(14 108.0 94.9)"/><circle cx="87.9" cy="92.0" r="1.28" fill="#ffffff" opacity="0.91"/><circle cx="101.9" cy="99.0" r="1.46" fill="#ffffff" opacity="0.67"/><circle cx="85.5" cy="78.3" r="1.49" fill="#ffffff" opacity="0.64"/><circle cx="125.1" cy="96.4" r="0.64" fill="#ffffff" opacity="0.49"/><circle cx="98.2" cy="91.0" r="0.71" fill="#ffffff" opacity="0.48"/><circle cx="114.9" cy="97.3" r="1.03" fill="#ffffff" opacity="0.81"/><circle cx="128.6" cy="114.5" r="1.49" fill="#ffffff" opacity="0.47"/><circle cx="87.5" cy="101.9" r="0.70" fill="#ffffff" opacity="0.41"/><path d="M92.0,97.1 L92.5,98.3 L93.6,98.7 L92.5,99.2 L92.0,100.4 L91.6,99.2 L90.4,98.7 L91.6,98.3 Z" fill="#ffffff" opacity="0.9"/><path d="M125.5,87.3 L126.0,88.7 L127.4,89.2 L126.0,89.7 L125.5,91.1 L125.0,89.7 L123.6,89.2 L125.0,88.7 Z" fill="#ffffff" opacity="0.9"/><path d="M97.0,108.6 L97.5,109.8 L98.6,110.2 L97.5,110.7 L97.0,111.9 L96.5,110.7 L95.3,110.2 L96.5,109.8 Z" fill="#ffffff" opacity="0.9"/><path d="M97.6,98.3 L85.9,84.7" stroke="#3d1d70" stroke-width="3.1" stroke-linecap="round"/><path d="M97.6,98.3 L85.9,84.7" stroke="url(#rimS5_036)" stroke-width="1.1" opacity=".8"/><path d="M85.9,82.1 L86.6,84.0 L88.5,84.7 L86.6,85.4 L85.9,87.3 L85.2,85.4 L83.3,84.7 L85.2,84.0 Z" fill="#ffffff" opacity="0.95"/><path d="M118.4,98.3 L130.1,84.7" stroke="#3d1d70" stroke-width="3.1" stroke-linecap="round"/><path d="M118.4,98.3 L130.1,84.7" stroke="url(#rimS5_036)" stroke-width="1.1" opacity=".8"/><path d="M130.1,82.1 L130.8,84.0 L132.7,84.7 L130.8,85.4 L130.1,87.3 L129.4,85.4 L127.5,84.7 L129.4,84.0 Z" fill="#ffffff" opacity="0.95"/><path d="M119.9,95.2 Q121.7,100.0 120.5,104.5 Q119.3,109.1 115.6,112.0 Q111.9,114.9 107.8,115.7 Q103.8,116.5 100.5,113.1 Q97.1,109.7 96.4,104.9 Q95.7,100.0 96.9,95.1 Q98.1,90.1 101.0,86.3 Q103.8,82.5 107.9,83.3 Q111.9,84.2 115.0,87.2 Q118.0,90.3 119.9,95.2 Z M107.5,106.5 a6.5,5.6 0 1 0 13.0,0 a4.7,4.0 0 1 1 -13.0,0 Z" fill="url(#voidS5_036)" stroke="#cbb6ff" stroke-width="2.2" stroke-linejoin="round"/><g clip-path="url(#clS5_036_1)"><path d="M119.9,95.2 Q121.7,100.0 120.5,104.5 Q119.3,109.1 115.6,112.0 Q111.9,114.9 107.8,115.7 Q103.8,116.5 100.5,113.1 Q97.1,109.7 96.4,104.9 Q95.7,100.0 96.9,95.1 Q98.1,90.1 101.0,86.3 Q103.8,82.5 107.9,83.3 Q111.9,84.2 115.0,87.2 Q118.0,90.3 119.9,95.2 Z M107.5,106.5 a6.5,5.6 0 1 0 13.0,0 a4.7,4.0 0 1 1 -13.0,0 Z" fill="url(#bodyS5_036)" opacity=".34"/><circle cx="99.7" cy="102.9" r="0.68" fill="#ffffff" opacity="0.50"/><circle cx="103.8" cy="89.5" r="1.08" fill="#ffffff" opacity="0.60"/><circle cx="116.3" cy="92.8" r="0.41" fill="#ffffff" opacity="0.75"/><circle cx="106.0" cy="111.6" r="0.74" fill="#ffffff" opacity="0.55"/><circle cx="119.9" cy="105.7" r="0.95" fill="#ffffff" opacity="0.94"/><circle cx="105.1" cy="86.2" r="0.82" fill="#ffffff" opacity="0.43"/><circle cx="100.7" cy="111.1" r="1.20" fill="#ffffff" opacity="0.73"/><circle cx="106.9" cy="87.6" r="1.41" fill="#ffffff" opacity="0.38"/><circle cx="102.3" cy="115.6" r="0.66" fill="#ffffff" opacity="0.57"/><circle cx="114.2" cy="83.0" r="1.32" fill="#ffffff" opacity="0.94"/><circle cx="108.8" cy="98.2" r="1.12" fill="#ffffff" opacity="0.55"/><path d="M103.6,92.8 L104.2,94.4 L105.8,95.0 L104.2,95.6 L103.6,97.2 L103.0,95.6 L101.4,95.0 L103.0,94.4 Z" fill="#ffffff" opacity="0.9"/><path d="M108.2,100.7 L108.8,102.2 L110.2,102.7 L108.8,103.3 L108.2,104.8 L107.7,103.3 L106.2,102.7 L107.7,102.2 Z" fill="#ffffff" opacity="0.9"/><path d="M117.8,94.3 L118.3,95.7 L119.7,96.2 L118.3,96.8 L117.8,98.2 L117.2,96.8 L115.8,96.2 L117.2,95.7 Z" fill="#ffffff" opacity="0.9"/><ellipse cx="102.2" cy="91.5" rx="9.1" ry="9.4" fill="#8a5cf0" opacity=".3"/></g><path d="M119.9,95.2 Q121.7,100.0 120.5,104.5 Q119.3,109.1 115.6,112.0 Q111.9,114.9 107.8,115.7 Q103.8,116.5 100.5,113.1 Q97.1,109.7 96.4,104.9 Q95.7,100.0 96.9,95.1 Q98.1,90.1 101.0,86.3 Q103.8,82.5 107.9,83.3 Q111.9,84.2 115.0,87.2 Q118.0,90.3 119.9,95.2 Z M107.5,106.5 a6.5,5.6 0 1 0 13.0,0 a4.7,4.0 0 1 1 -13.0,0 Z" fill="none" stroke="url(#rimS5_036)" stroke-width="1.6" opacity=".9"/><circle cx="88.0" cy="76.1" r="4.2" fill="url(#voidS5_036)" stroke="url(#rimS5_036)" stroke-width="1.1"/><path d="M88.0,73.4 L88.8,75.4 L90.8,76.1 L88.8,76.9 L88.0,78.8 L87.3,76.9 L85.3,76.1 L87.3,75.4 Z" fill="#ffffff" opacity="0.95"/><circle cx="99.5" cy="66.7" r="4.2" fill="url(#voidS5_036)" stroke="url(#rimS5_036)" stroke-width="1.1"/><path d="M99.5,64.0 L100.2,66.0 L102.2,66.7 L100.2,67.5 L99.5,69.5 L98.7,67.5 L96.7,66.7 L98.7,66.0 Z" fill="#ffffff" opacity="0.95"/><circle cx="116.5" cy="66.7" r="4.2" fill="url(#voidS5_036)" stroke="url(#rimS5_036)" stroke-width="1.1"/><path d="M116.5,64.0 L117.3,66.0 L119.3,66.7 L117.3,67.5 L116.5,69.5 L115.8,67.5 L113.8,66.7 L115.8,66.0 Z" fill="#ffffff" opacity="0.95"/><circle cx="128.0" cy="76.1" r="4.2" fill="url(#voidS5_036)" stroke="url(#rimS5_036)" stroke-width="1.1"/><path d="M128.0,73.4 L128.7,75.4 L130.7,76.1 L128.7,76.9 L128.0,78.8 L127.2,76.9 L125.2,76.1 L127.2,75.4 Z" fill="#ffffff" opacity="0.95"/><circle cx="108.0" cy="83.0" r="3.9" fill="url(#orbS5_036)" stroke="#cbb6ff" stroke-width="1.6"/><circle cx="107.9" cy="98.6" r="4.6" fill="#ecd8ff" opacity=".16"/><ellipse cx="107.9" cy="98.6" rx="2.8" ry="3.1" fill="#0b0620" stroke="#ff9bf5" stroke-width="1.1"/><circle cx="107.9" cy="98.6" r="1.6" fill="#ffffff"/><path d="M107.9,96.1 L108.6,97.9 L110.4,98.6 L108.6,99.3 L107.9,101.1 L107.3,99.3 L105.5,98.6 L107.3,97.9 Z" fill="#ffffff" opacity="0.95"/><circle cx="114.2" cy="98.6" r="4.2" fill="#ecd8ff" opacity=".16"/><ellipse cx="114.2" cy="98.6" rx="2.5" ry="2.9" fill="#0b0620" stroke="#ff9bf5" stroke-width="1.1"/><circle cx="114.2" cy="98.6" r="1.5" fill="#ffffff"/><path d="M114.2,96.3 L114.8,97.9 L116.5,98.6 L114.8,99.2 L114.2,100.9 L113.5,99.2 L111.9,98.6 L113.5,97.9 Z" fill="#ffffff" opacity="0.95"/><path d="M102.3,104.4 q3.4,2.7 6.9,0" fill="none" stroke="#cbb6ff" stroke-width="1.5" stroke-linecap="round"/><g transform="rotate(32 136.6 93.5)"><path d="M136.6,89.6 L139.0,93.1 L136.6,98.0 L134.1,93.1 Z" fill="#150a2c" stroke="#ff9bf5" stroke-width="1"/><path d="M136.6,89.6 L139.0,93.1 L136.6,98.0 Z" fill="#ecd8ff" opacity=".22"/></g><g transform="rotate(44 111.2 117.4)"><path d="M111.2,113.7 L113.6,117.1 L111.2,121.7 L108.9,117.1 Z" fill="#150a2c" stroke="#ff9bf5" stroke-width="1"/><path d="M111.2,113.7 L113.6,117.1 L111.2,121.7 Z" fill="#ecd8ff" opacity=".22"/></g><g transform="rotate(336 82.9 91.9)"><path d="M82.9,88.8 L84.8,91.6 L82.9,95.5 L81.0,91.6 Z" fill="#150a2c" stroke="#ff9bf5" stroke-width="1"/><path d="M82.9,88.8 L84.8,91.6 L82.9,95.5 Z" fill="#ecd8ff" opacity=".22"/></g><g transform="rotate(37 114.3 82.2)"><path d="M114.3,78.7 L116.5,81.9 L114.3,86.2 L112.2,81.9 Z" fill="#150a2c" stroke="#ff9bf5" stroke-width="1"/><path d="M114.3,78.7 L116.5,81.9 L114.3,86.2 Z" fill="#ecd8ff" opacity=".22"/></g><path d="M129.8,82.9 L130.4,84.6 L132.0,85.2 L130.4,85.9 L129.8,87.5 L129.1,85.9 L127.5,85.2 L129.1,84.6 Z" fill="#ffffff" opacity="0.9"/><path d="M79.3,93.1 L79.9,94.6 L81.4,95.1 L79.9,95.7 L79.3,97.2 L78.7,95.7 L77.2,95.1 L78.7,94.6 Z" fill="#ffffff" opacity="0.9"/></g></svg>