<svg viewBox="0 0 216 150" xmlns="http://www.w3.org/2000/svg">
  <defs>
    <linearGradient id="bodyS5_038" x1="0" y1="0" x2="0" y2="1">
      <stop offset="0%" stop-color="#e2c8ff"/><stop offset="55%" stop-color="#a06cf6"/>
      <stop offset="100%" stop-color="#5b2bb3"/>
    </linearGradient>
    <linearGradient id="body2S5_038" x1="0" y1="0" x2="1" y2="1">
      <stop offset="0%" stop-color="#a06cf6"/><stop offset="100%" stop-color="#160a2e"/>
    </linearGradient>
    <linearGradient id="bellyS5_038" x1="0" y1="0" x2="0" y2="1">
      <stop offset="0%" stop-color="#ffffff" stop-opacity=".92"/><stop offset="100%" stop-color="#e2c8ff"/>
    </linearGradient>
    <linearGradient id="voidS5_038" x1="0" y1="0" x2="0.3" y2="1">
      <stop offset="0%" stop-color="#4c2a86"/><stop offset="55%" stop-color="#2a1352"/>
      <stop offset="100%" stop-color="#100628"/>
    </linearGradient>
    <linearGradient id="metalS5_038" x1="0" y1="0" x2="0" y2="1">
      <stop offset="0%" stop-color="#c9d2e6"/><stop offset="45%" stop-color="#7d879f"/>
      <stop offset="100%" stop-color="#333a4d"/>
    </linearGradient>
    <linearGradient id="woodS5_038" x1="0" y1="0" x2="1" y2="1">
      <stop offset="0%" stop-color="#9a6d3a"/><stop offset="100%" stop-color="#4a3016"/>
    </linearGradient>
    <radialGradient id="stageS5_038" cx="50%" cy="62%" r="55%">
      <stop offset="0%" stop-color="#ecd8ff" stop-opacity=".55"/><stop offset="70%" stop-color="#ecd8ff" stop-opacity="0"/>
    </radialGradient>
    <radialGradient id="orbS5_038" cx="42%" cy="38%" r="65%">
      <stop offset="0%" stop-color="#ffffff" stop-opacity=".95"/>
      <stop offset="45%" stop-color="#e2c8ff"/><stop offset="100%" stop-color="#5b2bb3"/>
    </radialGradient>
    <radialGradient id="haloS5_038" cx="50%" cy="50%" r="50%">
      <stop offset="60%" stop-color="#ecd8ff" stop-opacity="0"/><stop offset="100%" stop-color="#ecd8ff" stop-opacity=".5"/>
    </radialGradient>
    <linearGradient id="rimS5_038" x1="0" y1="0" x2="1" y2="1">
      <stop offset="0%" stop-color="#ff9bf5"/><stop offset="100%" stop-color="#ecd8ff" stop-opacity=".2"/>
    </linearGradient><clipPath id="clS5_038_1"><path d="M123.4,81.1 Q124.0,86.0 123.1,91.1 Q122.1,96.2 117.7,99.0 Q113.2,101.8 108.1,101.8 Q103.0,101.8 98.2,98.3 Q93.4,94.9 91.9,90.4 Q90.4,86.0 91.9,81.3 Q93.4,76.6 97.8,73.7 Q102.2,70.9 107.8,70.1 Q113.4,69.3 118.1,72.7 Q122.8,76.2 123.4,81.1 Z M111.6,88.5 a8.0,6.9 0 1 0 16.0,0 a5.8,5.0 0 1 1 -16.0,0 Z"/></clipPath><clipPath id="clS5_038_2"><path d="M119.4,54.4 Q120.6,58.1 120.5,62.4 Q120.4,66.6 116.5,68.9 Q112.5,71.2 108.3,71.3 Q104.1,71.4 100.5,69.1 Q96.9,66.7 95.2,62.4 Q93.5,58.1 95.1,54.5 Q96.6,50.9 100.1,47.7 Q103.6,44.5 107.8,44.7 Q111.9,44.9 115.1,47.8 Q118.3,50.8 119.4,54.4 Z M111.3,58.8 a6.7,5.8 0 1 0 13.4,0 a4.8,4.2 0 1 1 -13.4,0 Z"/></clipPath>
  </defs>
  <defs>
    <radialGradient id="skyS5_038" cx="52%" cy="40%" r="80%">
      <stop offset="0%" stop-color="#271248"/><stop offset="55%" stop-color="#140925"/><stop offset="100%" stop-color="#05020f"/>
    </radialGradient>
    <radialGradient id="nebS5_038" cx="50%" cy="46%" r="42%">
      <stop offset="0%" stop-color="#7a4fdd" stop-opacity=".3"/><stop offset="100%" stop-color="#7a4fdd" stop-opacity="0"/>
    </radialGradient>
    <radialGradient id="neb2S5_038" cx="26%" cy="70%" r="46%">
      <stop offset="0%" stop-color="#ff6fd8" stop-opacity=".16"/><stop offset="100%" stop-color="#ff6fd8" stop-opacity="0"/>
    </radialGradient>
    <linearGradient id="orb2S5_038" x1="0" y1="0" x2="1" y2="1">
      <stop offset="0%" stop-color="#4a2b7a"/><stop offset="100%" stop-color="#150a2c"/>
    </linearGradient>
  </defs>
  <rect x="0" y="0" width="216" height="150" fill="url(#skyS5_038)"/>
  <ellipse cx="108" cy="70" rx="96" ry="66" fill="url(#nebS5_038)"/>
  <ellipse cx="60" cy="104" rx="86" ry="52" fill="url(#neb2S5_038)"/>
  <path d="M26.0,24.0 L26.6,25.4 L28.0,26.0 L26.6,26.6 L26.0,28.0 L25.4,26.6 L24.0,26.0 L25.4,25.4 Z" fill="#ffffff" opacity="0.9"/><path d="M64.0,12.6 L64.4,13.6 L65.4,14.0 L64.4,14.4 L64.0,15.4 L63.6,14.4 L62.6,14.0 L63.6,13.6 Z" fill="#ffffff" opacity="0.7"/><path d="M96.0,32.3 L96.5,33.5 L97.7,34.0 L96.5,34.5 L96.0,35.7 L95.5,34.5 L94.3,34.0 L95.5,33.5 Z" fill="#ffffff" opacity="0.8"/><path d="M140.0,16.7 L140.4,17.6 L141.3,18.0 L140.4,18.4 L140.0,19.3 L139.6,18.4 L138.7,18.0 L139.6,17.6 Z" fill="#ffffff" opacity="0.7"/><path d="M178.0,28.0 L178.6,29.4 L180.0,30.0 L178.6,30.6 L178.0,32.0 L177.4,30.6 L176.0,30.0 L177.4,29.4 Z" fill="#ffffff" opacity="0.85"/><path d="M200.0,58.5 L200.4,59.6 L201.5,60.0 L200.4,60.4 L200.0,61.5 L199.6,60.4 L198.5,60.0 L199.6,59.6 Z" fill="#ffffff" opacity="0.7"/><path d="M40.0,68.7 L40.4,69.6 L41.3,70.0 L40.4,70.4 L40.0,71.3 L39.6,70.4 L38.7,70.0 L39.6,69.6 Z" fill="#ffffff" opacity="0.6"/><path d="M120.0,94.6 L120.4,95.6 L121.4,96.0 L120.4,96.4 L120.0,97.4 L119.6,96.4 L118.6,96.0 L119.6,95.6 Z" fill="#ffffff" opacity="0.6"/><path d="M190.0,102.4 L190.4,103.6 L191.6,104.0 L190.4,104.4 L190.0,105.6 L189.6,104.4 L188.4,104.0 L189.6,103.6 Z" fill="#ffffff" opacity="0.7"/><path d="M54.0,110.8 L54.3,111.7 L55.2,112.0 L54.3,112.3 L54.0,113.2 L53.7,112.3 L52.8,112.0 L53.7,111.7 Z" fill="#ffffff" opacity="0.6"/><path d="M150.0,56.8 L150.3,57.7 L151.2,58.0 L150.3,58.3 L150.0,59.2 L149.7,58.3 L148.8,58.0 L149.7,57.7 Z" fill="#ffffff" opacity="0.6"/><path d="M84.0,70.9 L84.3,71.7 L85.1,72.0 L84.3,72.3 L84.0,73.1 L83.7,72.3 L82.9,72.0 L83.7,71.7 Z" fill="#ffffff" opacity="0.6"/><path d="M12.0,44.9 L12.3,45.7 L13.1,46.0 L12.3,46.3 L12.0,47.1 L11.7,46.3 L10.9,46.0 L11.7,45.7 Z" fill="#ffffff" opacity="0.55"/><path d="M168.0,81.0 L168.3,81.7 L169.0,82.0 L168.3,82.3 L168.0,83.0 L167.7,82.3 L167.0,82.0 L167.7,81.7 Z" fill="#ffffff" opacity="0.5"/>
  <g opacity=".85">
    <circle cx="176" cy="34" r="19" fill="url(#orb2S5_038)"/>
    <circle cx="176" cy="34" r="19" fill="none" stroke="#9c7bdc" stroke-width="0.8" opacity=".7"/>
    <ellipse cx="176" cy="34" rx="30" ry="8" fill="none" stroke="#d9c6ff" stroke-width="1.6" opacity=".55" transform="rotate(-18 176 34)"/>
    <ellipse cx="176" cy="34" rx="36" ry="10" fill="none" stroke="#b79bff" stroke-width="0.9" opacity=".4" transform="rotate(-18 176 34)"/>
  </g>
  <circle cx="48" cy="44" r="1" fill="#cdb3ff" opacity="0.5"/><circle cx="150" cy="40" r="1.2" fill="#cdb3ff" opacity="0.5"/><circle cx="180" cy="80" r="1" fill="#cdb3ff" opacity="0.45"/><circle cx="70" cy="100" r="1" fill="#cdb3ff" opacity="0.45"/>
  <path d="M0,150 L0,132 Q54,142 108,133 T216,135 L216,150 Z" fill="#0b0620"/>
  <path d="M0,134 Q54,144 108,135 T216,137" fill="none" stroke="#a06cf6" stroke-width="1" opacity=".5"/>
  <ellipse cx="108" cy="96" rx="78" ry="34" fill="url(#stageS5_038)" opacity=".45"/><ellipse cx="108.0" cy="124.0" rx="16.8" ry="3.3" fill="#05020f" opacity=".65"/><ellipse cx="108.0" cy="124.0" rx="19.9" ry="4.3" fill="none" stroke="#ecd8ff" stroke-width="1" opacity=".38"/><ellipse cx="108.0" cy="79.6" rx="27.7" ry="7.9" fill="none" stroke="#ecd8ff" stroke-width="1.6" opacity="0.70" transform="rotate(-22 108.0 79.6)"/><ellipse cx="108.0" cy="79.6" rx="33.5" ry="10.5" fill="none" stroke="#ff9bf5" stroke-width="1.1" opacity="0.45" transform="rotate(14 108.0 79.6)"/><circle cx="110.0" cy="62.0" r="1.02" fill="#ffffff" opacity="0.85"/><circle cx="111.1" cy="65.8" r="0.92" fill="#ffffff" opacity="0.72"/><circle cx="91.2" cy="97.5" r="0.86" fill="#ffffff" opacity="0.77"/><circle cx="105.2" cy="83.9" r="1.01" fill="#ffffff" opacity="0.84"/><circle cx="111.9" cy="58.6" r="1.42" fill="#ffffff" opacity="0.72"/><circle cx="116.0" cy="89.0" r="1.11" fill="#ffffff" opacity="0.85"/><circle cx="124.4" cy="89.5" r="0.82" fill="#ffffff" opacity="0.64"/><circle cx="102.0" cy="71.5" r="0.74" fill="#ffffff" opacity="0.58"/><path d="M133.9,96.5 L134.5,97.9 L135.8,98.4 L134.5,98.9 L133.9,100.3 L133.4,98.9 L132.0,98.4 L133.4,97.9 Z" fill="#ffffff" opacity="0.9"/><path d="M115.9,57.4 L116.5,58.8 L117.9,59.4 L116.5,60.0 L115.9,61.4 L115.3,60.0 L113.9,59.4 L115.3,58.8 Z" fill="#ffffff" opacity="0.9"/><path d="M101.6,84.7 L102.3,86.3 L103.8,86.9 L102.3,87.5 L101.6,89.1 L101.0,87.5 L99.4,86.9 L101.0,86.3 Z" fill="#ffffff" opacity="0.9"/><path d="M96.6,97.2 L103.8,97.2 L101.3,112.0 L99.0,112.0 Z" fill="url(#voidS5_038)" stroke="#cbb6ff" stroke-width="1.8" stroke-linejoin="round" opacity=".95"/><path d="M96.6,97.2 L103.8,97.2 L101.3,112.0 L99.0,112.0 Z" fill="none" stroke="url(#rimS5_038)" stroke-width="1.2" opacity=".8"/><path d="M100.2,111.8 L100.8,113.4 L102.4,114.0 L100.8,114.6 L100.2,116.2 L99.6,114.6 L98.0,114.0 L99.6,113.4 Z" fill="#ecd8ff" opacity="0.9"/><path d="M112.2,97.2 L119.4,97.2 L117.0,112.0 L114.7,112.0 Z" fill="url(#voidS5_038)" stroke="#cbb6ff" stroke-width="1.8" stroke-linejoin="round" opacity=".95"/><path d="M112.2,97.2 L119.4,97.2 L117.0,112.0 L114.7,112.0 Z" fill="none" stroke="url(#rimS5_038)" stroke-width="1.2" opacity=".8"/><path d="M115.8,111.8 L116.4,113.4 L118.0,114.0 L116.4,114.6 L115.8,116.2 L115.2,114.6 L113.6,114.0 L115.2,113.4 Z" fill="#ecd8ff" opacity="0.9"/><path d="M123.4,81.1 Q124.0,86.0 123.1,91.1 Q122.1,96.2 117.7,99.0 Q113.2,101.8 108.1,101.8 Q103.0,101.8 98.2,98.3 Q93.4,94.9 91.9,90.4 Q90.4,86.0 91.9,81.3 Q93.4,76.6 97.8,73.7 Q102.2,70.9 107.8,70.1 Q113.4,69.3 118.1,72.7 Q122.8,76.2 123.4,81.1 Z M111.6,88.5 a8.0,6.9 0 1 0 16.0,0 a5.8,5.0 0 1 1 -16.0,0 Z" fill="url(#voidS5_038)" stroke="#cbb6ff" stroke-width="2.2" stroke-linejoin="round"/><g clip-path="url(#clS5_038_1)"><path d="M123.4,81.1 Q124.0,86.0 123.1,91.1 Q122.1,96.2 117.7,99.0 Q113.2,101.8 108.1,101.8 Q103.0,101.8 98.2,98.3 Q93.4,94.9 91.9,90.4 Q90.4,86.0 91.9,81.3 Q93.4,76.6 97.8,73.7 Q102.2,70.9 107.8,70.1 Q113.4,69.3 118.1,72.7 Q122.8,76.2 123.4,81.1 Z M111.6,88.5 a8.0,6.9 0 1 0 16.0,0 a5.8,5.0 0 1 1 -16.0,0 Z" fill="url(#bodyS5_038)" opacity=".34"/><circle cx="112.1" cy="76.6" r="1.04" fill="#ffffff" opacity="0.95"/><circle cx="111.5" cy="73.3" r="1.24" fill="#ffffff" opacity="0.55"/><circle cx="122.6" cy="74.3" r="1.16" fill="#ffffff" opacity="0.37"/><circle cx="93.5" cy="70.8" r="1.05" fill="#ffffff" opacity="0.50"/><circle cx="99.2" cy="72.4" r="1.21" fill="#ffffff" opacity="0.36"/><circle cx="119.5" cy="74.3" r="0.56" fill="#ffffff" opacity="0.59"/><circle cx="91.5" cy="78.4" r="1.33" fill="#ffffff" opacity="0.74"/><circle cx="111.0" cy="101.5" r="1.30" fill="#ffffff" opacity="0.92"/><circle cx="123.1" cy="83.1" r="0.75" fill="#ffffff" opacity="0.87"/><circle cx="100.0" cy="73.3" r="0.91" fill="#ffffff" opacity="0.84"/><circle cx="114.7" cy="71.4" r="0.40" fill="#ffffff" opacity="0.39"/><circle cx="116.2" cy="86.3" r="0.91" fill="#ffffff" opacity="0.71"/><path d="M109.6,74.7 L110.3,76.3 L111.9,76.9 L110.3,77.5 L109.6,79.1 L109.0,77.5 L107.4,76.9 L109.0,76.3 Z" fill="#ffffff" opacity="0.9"/><path d="M112.5,79.6 L113.2,81.3 L114.9,81.9 L113.2,82.6 L112.5,84.3 L111.9,82.6 L110.2,81.9 L111.9,81.3 Z" fill="#ffffff" opacity="0.9"/><path d="M98.7,82.3 L99.5,84.2 L101.4,84.9 L99.5,85.7 L98.7,87.6 L98.0,85.7 L96.1,84.9 L98.0,84.2 Z" fill="#ffffff" opacity="0.9"/><ellipse cx="100.3" cy="78.0" rx="11.9" ry="8.8" fill="#8a5cf0" opacity=".3"/></g><path d="M123.4,81.1 Q124.0,86.0 123.1,91.1 Q122.1,96.2 117.7,99.0 Q113.2,101.8 108.1,101.8 Q103.0,101.8 98.2,98.3 Q93.4,94.9 91.9,90.4 Q90.4,86.0 91.9,81.3 Q93.4,76.6 97.8,73.7 Q102.2,70.9 107.8,70.1 Q113.4,69.3 118.1,72.7 Q122.8,76.2 123.4,81.1 Z M111.6,88.5 a8.0,6.9 0 1 0 16.0,0 a5.8,5.0 0 1 1 -16.0,0 Z" fill="none" stroke="url(#rimS5_038)" stroke-width="1.6" opacity=".9"/><path d="M97.5,79.3 L90.2,91.6" stroke="#3d1d70" stroke-width="5.8" stroke-linecap="round"/><path d="M97.5,79.3 L90.2,91.6" stroke="url(#rimS5_038)" stroke-width="1.1" opacity=".8"/><path d="M118.5,79.3 L125.8,91.6" stroke="#3d1d70" stroke-width="5.8" stroke-linecap="round"/><path d="M118.5,79.3 L125.8,91.6" stroke="url(#rimS5_038)" stroke-width="1.1" opacity=".8"/><circle cx="90.2" cy="91.6" r="3.6" fill="url(#voidS5_038)" stroke="#cbb6ff" stroke-width="1.5"/><circle cx="125.8" cy="91.6" r="3.6" fill="url(#voidS5_038)" stroke="#cbb6ff" stroke-width="1.5"/><path d="M119.4,54.4 Q120.6,58.1 120.5,62.4 Q120.4,66.6 116.5,68.9 Q112.5,71.2 108.3,71.3 Q104.1,71.4 100.5,69.1 Q96.9,66.7 95.2,62.4 Q93.5,58.1 95.1,54.5 Q96.6,50.9 100.1,47.7 Q103.6,44.5 107.8,44.7 Q111.9,44.9 115.1,47.8 Q118.3,50.8 119.4,54.4 Z M111.3,58.8 a6.7,5.8 0 1 0 13.4,0 a4.8,4.2 0 1 1 -13.4,0 Z" fill="url(#voidS5_038)" stroke="#cbb6ff" stroke-width="2.0" stroke-linejoin="round"/><g clip-path="url(#clS5_038_2)"><path d="M119.4,54.4 Q120.6,58.1 120.5,62.4 Q120.4,66.6 116.5,68.9 Q112.5,71.2 108.3,71.3 Q104.1,71.4 100.5,69.1 Q96.9,66.7 95.2,62.4 Q93.5,58.1 95.1,54.5 Q96.6,50.9 100.1,47.7 Q103.6,44.5 107.8,44.7 Q111.9,44.9 115.1,47.8 Q118.3,50.8 119.4,54.4 Z M111.3,58.8 a6.7,5.8 0 1 0 13.4,0 a4.8,4.2 0 1 1 -13.4,0 Z" fill="url(#bodyS5_038)" opacity=".3"/><circle cx="106.7" cy="56.4" r="1.31" fill="#ffffff" opacity="0.67"/><circle cx="95.5" cy="55.7" r="0.96" fill="#ffffff" opacity="0.84"/><circle cx="105.7" cy="50.2" r="0.68" fill="#ffffff" opacity="0.91"/><circle cx="103.6" cy="50.8" r="0.35" fill="#ffffff" opacity="0.98"/><circle cx="119.6" cy="67.4" r="1.41" fill="#ffffff" opacity="0.67"/><circle cx="113.2" cy="51.1" r="0.90" fill="#ffffff" opacity="0.52"/><circle cx="95.7" cy="59.6" r="0.71" fill="#ffffff" opacity="0.46"/><circle cx="110.8" cy="64.9" r="1.25" fill="#ffffff" opacity="0.43"/><path d="M107.0,43.3 L107.4,44.6 L108.7,45.0 L107.4,45.5 L107.0,46.8 L106.5,45.5 L105.2,45.0 L106.5,44.6 Z" fill="#ffffff" opacity="0.9"/><path d="M103.2,61.6 L103.8,63.2 L105.5,63.9 L103.8,64.5 L103.2,66.2 L102.5,64.5 L100.9,63.9 L102.5,63.2 Z" fill="#ffffff" opacity="0.9"/><path d="M109.2,59.0 L109.8,60.7 L111.6,61.4 L109.8,62.1 L109.2,63.8 L108.5,62.1 L106.8,61.4 L108.5,60.7 Z" fill="#ffffff" opacity="0.9"/></g><path d="M119.4,54.4 Q120.6,58.1 120.5,62.4 Q120.4,66.6 116.5,68.9 Q112.5,71.2 108.3,71.3 Q104.1,71.4 100.5,69.1 Q96.9,66.7 95.2,62.4 Q93.5,58.1 95.1,54.5 Q96.6,50.9 100.1,47.7 Q103.6,44.5 107.8,44.7 Q111.9,44.9 115.1,47.8 Q118.3,50.8 119.4,54.4 Z M111.3,58.8 a6.7,5.8 0 1 0 13.4,0 a4.8,4.2 0 1 1 -13.4,0 Z" fill="none" stroke="url(#rimS5_038)" stroke-width="1.5" opacity=".9"/><path d="M95.4,56.0 a12.9,11.2 0 0 1 25.2,0 Z" fill="#8a5cf0" opacity=".28"/><g transform="rotate(-6 103.0 51.1)"><path d="M98.2,51.1 Q98.7,25.2 104.2,23.9 Q103.5,40.7 107.8,51.1 Z" fill="url(#voidS5_038)" stroke="#cbb6ff" stroke-width="1.7" stroke-linejoin="round"/><path d="M98.2,51.1 Q98.7,25.2 104.2,23.9 Q103.5,40.7 107.8,51.1 Z" fill="none" stroke="url(#rimS5_038)" stroke-width="1.1" opacity=".85"/></g><g transform="rotate(6 114.2 51.1)"><path d="M109.4,51.1 Q109.9,25.2 115.4,23.9 Q114.7,40.7 118.9,51.1 Z" fill="url(#voidS5_038)" stroke="#cbb6ff" stroke-width="1.7" stroke-linejoin="round"/><path d="M109.4,51.1 Q109.9,25.2 115.4,23.9 Q114.7,40.7 118.9,51.1 Z" fill="none" stroke="url(#rimS5_038)" stroke-width="1.1" opacity=".85"/></g><circle cx="107.4" cy="57.5" r="6.2" fill="#ecd8ff" opacity=".16"/><ellipse cx="107.4" cy="57.5" rx="3.7" ry="4.2" fill="#0b0620" stroke="#ff9bf5" stroke-width="1.1"/><circle cx="107.4" cy="57.5" r="2.2" fill="#ffffff"/><path d="M107.4,54.2 L108.4,56.6 L110.8,57.5 L108.4,58.5 L107.4,60.9 L106.5,58.5 L104.1,57.5 L106.5,56.6 Z" fill="#ffffff" opacity="0.95"/><circle cx="115.8" cy="57.5" r="5.7" fill="#ecd8ff" opacity=".16"/><ellipse cx="115.8" cy="57.5" rx="3.4" ry="3.9" fill="#0b0620" stroke="#ff9bf5" stroke-width="1.1"/><circle cx="115.8" cy="57.5" r="2.0" fill="#ffffff"/><path d="M115.8,54.5 L116.7,56.7 L118.9,57.5 L116.7,58.4 L115.8,60.6 L115.0,58.4 L112.8,57.5 L115.0,56.7 Z" fill="#ffffff" opacity="0.95"/><path d="M99.9,65.4 q4.6,3.7 9.2,0" fill="none" stroke="#cbb6ff" stroke-width="1.5" stroke-linecap="round"/><g transform="rotate(201 136.5 84.8)"><path d="M136.5,81.4 L138.6,84.5 L136.5,88.7 L134.4,84.5 Z" fill="#150a2c" stroke="#ff9bf5" stroke-width="1"/><path d="M136.5,81.4 L138.6,84.5 L136.5,88.7 Z" fill="#ecd8ff" opacity=".22"/></g><g transform="rotate(357 111.2 100.2)"><path d="M111.2,97.1 L113.1,99.9 L111.2,103.7 L109.3,99.9 Z" fill="#150a2c" stroke="#ff9bf5" stroke-width="1"/><path d="M111.2,97.1 L113.1,99.9 L111.2,103.7 Z" fill="#ecd8ff" opacity=".22"/></g><g transform="rotate(267 85.4 95.1)"><path d="M85.4,92.4 L87.1,94.9 L85.4,98.3 L83.7,94.9 Z" fill="#150a2c" stroke="#ff9bf5" stroke-width="1"/><path d="M85.4,92.4 L87.1,94.9 L85.4,98.3 Z" fill="#ecd8ff" opacity=".22"/></g><g transform="rotate(60 88.6 63.9)"><path d="M88.6,61.3 L90.2,63.7 L88.6,66.9 L87.0,63.7 Z" fill="#150a2c" stroke="#ff9bf5" stroke-width="1"/><path d="M88.6,61.3 L90.2,63.7 L88.6,66.9 Z" fill="#ecd8ff" opacity=".22"/></g><g transform="rotate(326 124.9 64.1)"><path d="M124.9,60.3 L127.3,63.7 L124.9,68.5 L122.6,63.7 Z" fill="#150a2c" stroke="#ff9bf5" stroke-width="1"/><path d="M124.9,60.3 L127.3,63.7 L124.9,68.5 Z" fill="#ecd8ff" opacity=".22"/></g><path d="M74.8,67.7 L75.3,69.1 L76.7,69.6 L75.3,70.1 L74.8,71.5 L74.3,70.1 L72.9,69.6 L74.3,69.1 Z" fill="#ffffff" opacity="0.9"/><path d="M94.8,60.2 L95.2,61.3 L96.4,61.7 L95.2,62.1 L94.8,63.2 L94.4,62.1 L93.3,61.7 L94.4,61.3 Z" fill="#ffffff" opacity="0.9"/></svg>